<?xml version="1.0" encoding="UTF-8"?>
<svg id="_레이어_2" data-name="레이어 2" xmlns="http://www.w3.org/2000/svg" viewBox="0 0 185.46 58.33">
  <defs>
    <style>
      .cls-1, .cls-2, .cls-3, .cls-4 {
        fill: #f4a617;
      }

      .cls-2 {
        letter-spacing: -.05em;
      }

      .cls-2, .cls-3 {
        font-family: CenturyGothic, 'Century Gothic';
        font-size: 50px;
      }

      .cls-4 {
        font-family: CenturyGothic-Bold, 'Century Gothic';
        font-size: 31.11px;
        font-weight: 700;
      }
    </style>
  </defs>
  <g id="_레이어_1-2" data-name="레이어 1">
    <g>
      <text class="cls-2" transform="translate(77 42.95)"><tspan x="0" y="0">ea</tspan></text>
      <text class="cls-3" transform="translate(0 42.95)"><tspan x="0" y="0">ex</tspan></text>
      <text class="cls-3" transform="translate(154.97 43)"><tspan x="0" y="0">n</tspan></text>
      <path class="cls-1" d="M149.87,19.13c.6-.16,1.22-.13,1.83-.18.29-.03.59-.06.88-.08l1.37-2.22c-1.07-.6-2.08-.9-3.03-.9-1.25,0-2.46.38-3.61,1.14-1.16.76-2.25,1.9-3.3,3.43v-3.88h-3.49v26.56h3.49v-8.98c0-4.61.21-7.67.63-9.18.55-1.97,1.36-3.42,2.42-4.36.9-.8,1.83-1.22,2.79-1.34,0,0,0,0,0,0Z"/>
      <path class="cls-1" d="M151,15.75s0,.07,0,.1c0,.11-.02.22-.05.32-.01.07-.04.14-.07.21-.01.04-.04.07-.09.09-.15.04-.31.04-.46.04-.06-.02-.1-.07-.12-.14-.01-.04-.03-.09-.04-.13-.03.02-.06.04-.08.06-.05.04-.11.07-.16.11-.04.05-.08.05-.12,0,0,0,0,0,0-.01v2.74h5.36v-3.39h-4.15Z"/>
      <text class="cls-4" transform="translate(57.7 34.24)"><tspan x="0" y="0">:</tspan></text>
      <rect class="cls-1" x="67.72" y="7.7" width=".58" height="35.9"/>
      <rect class="cls-1" x="71.52" y="7.7" width="3.63" height="35.9"/>
    </g>
  </g>
</svg>