<?xml version='1.0' encoding='utf-8'?>
<svg xmlns="http://www.w3.org/2000/svg" enable-background="new 0 0 256 256" viewBox="0 0 256 256"> <defs> <radialGradient id="a" cx=".0405" cy=".2002" r="1.4292" gradientTransform="matrix(249.63 0 0 -249.63 114.79 168.71)" gradientUnits="userSpaceOnUse"> <stop stop-color="#eae2ca" offset="0"/> <stop offset="1"/> </radialGradient> </defs> <path d="m239.68 48.504h-229.68v140.33h229.68v-140.33" fill="url(#a)"/> <path d="m239.68 48.504h-229.68v140.33h229.68v-140.33" fill="url(#a)"/> <path d="m17 55.504h215.68v126.33h-215.68z" fill="none" stroke="#006838" stroke-miterlimit="10"/> <path d="m54.851,69.391 .34.352c-.483.534-.791.972-.922,1.312s-.198.854-.198,1.542v8.487c0,.871.074,1.418.221,1.641s.342.335.585.335c.199,0 .486-.168.862-.505l.318.428-2.663,2.086c-.639-.322-1.07-.693-1.294-1.114s-.336-1.158-.336-2.212v-10.495l-1.844-1.417-.725.459v5.457h1.328l-1.328,1.647v4.625l.859-.703 .326.354-4.057,3.398c-.614-.732-1.11-1.266-1.49-1.603-.277-.242-.606-.461-.986-.659v-.395c.344-.117.571-.304.681-.56 .081-.19.121-.637.121-1.339v-3.118h-3.338v4.732c0,1.303-.331,2.306-.992,3.008s-1.525,1.054-2.593,1.054c-.234,0-.65-.043-1.25-.131-.409-.059-.706-.088-.888-.088-.373,0-.645.084-.817.252s-.258.454-.258.856h-.427c-.088-.315-.132-.579-.132-.791 0-.396.103-.767.308-1.114 .205-.348.479-.606.823-.774 .264-.131.747-.23 1.449-.296s1.222-.287 1.559-.664 .505-.898.505-1.564c0-1.047-.245-1.909-.734-2.585s-1.082-1.016-1.776-1.016c-.541,0-.987.256-1.338.769l-.4-.17c.198-.54.428-.957.688-1.249s.611-.522 1.052-.69c.323-.124.793-.189 1.41-.197-.007-.22-.011-.384-.011-.494 0-1.23.246-2.265.737-3.107s1.262-1.616 2.313-2.322 2.56-1.499 4.529-2.377c.694.373 1.164.747 1.409,1.12s.382.915.411,1.625l4.298-2.745 2.629,1.965 1.036-1.01zm-13.619,1.635c-.63.498-1.04.972-1.229,1.422s-.283,1.235-.283,2.355v6.214c0,1.018-.129,1.731-.388,2.141s-.76.765-1.503,1.065c.329.022.606.033.832.033 .54,0 .98-.093 1.32-.28s.562-.417.668-.692 .159-.755.159-1.444v-8.278c0-.629.039-1.153.117-1.57 .049-.255.152-.577.307-.966zm3.419,4.722v-3.272c0-.797-.103-1.376-.309-1.734s-.573-.648-1.102-.868c-.507.256-.867.491-1.08.703-.286.3-.499.659-.639,1.076s-.209,1.018-.209,1.801v3.48l.915-1.186h2.424zm4.062-5.129-1.822,1.187v3.942h1.822v-5.129zm0,6.776h-1.822v2.849c0,.982.066,1.613.199,1.892 .213.477.501.715.863.715 .188,0 .442-.143.76-.429v-5.027zm16.304-3.558 .395.153c-.395.615-.646,1.085-.752,1.411s-.159.767-.159,1.323v4.677c0,.776.055,1.261.165,1.455s.241.291.395.291c.08,0 .163-.021.25-.063 .053-.034.209-.16.47-.376l.269.34-2.333,2.02c-.565-.439-.944-.833-1.135-1.18s-.298-.833-.32-1.455l-3.332,2.635c-1.255-1.026-1.883-2.038-1.883-3.035 0-.667.136-1.293.408-1.88 .36-.77.98-1.667 1.862-2.694l-1.321-2.822 .153-.285c.285.022.497.033.635.033 .862,0 1.621-.34 2.278-1.021 .533.312 1.116.561 1.747.75s1.116.282 1.452.282c.153,0 .27-.027.351-.081s.215-.212.405-.478zm-2.756,2.087-3.755-1.153 1.336,2.829 2.418,1.136v-2.812zm0,3.271-2.657-1.247c-.41.895-.615,1.679-.615,2.353 0,1.188.538,2.166 1.614,2.936l1.657-1.339v-2.703zm9.75-9.859v.285c-.579.3-.987.668-1.225,1.104s-.356,1.096-.356,1.982v9.76l1.251.933 .483-.395 .275.395-2.202,1.669c-.665-.578-1.162-.962-1.49-1.153s-.763-.362-1.304-.516v-.241c.205-.125.364-.282.478-.472s.192-.414.236-.67c.015-.088.026-.527.033-1.317v-7.84c0-.666-.026-1.129-.077-1.389s-.153-.509-.307-.747-.414-.503-.78-.796l.176-.22c.668.19 1.267.578 1.795,1.164 .548-.578 1.043-.974 1.485-1.186s.951-.328 1.529-.35zm3.65,4.029 1.949,1.619-.867.84v5.973c0,.63.053,1.04.159,1.23s.215.285.327.285c.079,0 .152-.018.218-.055 .092-.051.284-.198.575-.439l.269.34-2.355,1.91c-.588-.417-.966-.811-1.135-1.18s-.253-1.016-.253-1.938v-6.126l-.824-.84 1.937-1.619zm.829-3.755h1.394l-1.515,2.372h-.439l.56-2.372zm7.795-.274 .077.285c-.563.336-.935.667-1.114.992s-.269.856-.269,1.595v3.858l3.486-2.701c.649.446 1.087.884 1.313,1.312s.339,1.016.339,1.762v6.62c-.896.352-1.639.699-2.229,1.043-.452.271-.882.593-1.29.966-.623-.512-1.244-.908-1.863-1.186s-1.537-.553-2.753-.824v-.198c.314-.22.512-.476.593-.769 .125-.432.187-1.432.187-3v-6.361c0-.828-.084-1.426-.252-1.796s-.487-.716-.955-1.039l.198-.274c.558.242.939.427 1.146.555 .205.128.404.294.595.5 .755-.542 1.291-.884 1.606-1.027 .312-.143.709-.247 1.185-.313zm-1.306,12.714 2.866,1.131v-6.18c0-.571-.053-.964-.158-1.18s-.356-.459-.754-.73l-1.954,1.5v5.459zm14.607-8.685 1.96,1.63-.889.807v5.764c0,.666.093,1.142.28,1.427 .12.198.251.296.393.296 .105,0 .307-.117.606-.351l.269.34-2.333,1.79c-.583-.41-.964-.778-1.143-1.104s-.275-.843-.29-1.553c-1.136.73-2.294,1.616-3.475,2.657-.708-.556-1.171-1.045-1.39-1.466s-.329-.975-.329-1.663v-5.424c0-.38-.034-.629-.102-.747-.12-.205-.282-.308-.486-.308-.153,0-.384.125-.69.374l-.269-.34 2.597-2.13 1.993,1.63-.824.73v5.837c0,.433.055.75.165.951s.376.456.801.764l2.01-1.481v-5.994l-.78-.807 1.926-1.629zm22.31-4.929 .214.466c-.97.336-1.686.677-2.148,1.02s-.764.706-.903,1.086-.209.998-.209,1.853v2.27l4.281-3.437c.9.571 1.582,1.109 2.043,1.614s.767,1.01.917,1.515c.15.505.225,1.333.225,2.481v1.636c0,.856-.053,1.494-.159,1.911s-.32.831-.642,1.241c-.468.601-1.273,1.351-2.416,2.251-.82.645-1.325,1.091-1.515,1.34s-.285.461-.285.637c0,.095.037.179.11.252s.175.11.307.11c.081,0 .192-.017.335-.049s.254-.049.335-.049c.19,0 .333.047.428.143 .095.095.143.227.143.396 0,.205-.081.373-.242.505-.219.183-.487.274-.801.274-.337,0-.626-.133-.867-.401s-.362-.591-.362-.971c0-.264.089-.573.269-.928 .18-.355.624-.97 1.334-1.845s1.169-1.537 1.378-1.987 .353-.997.434-1.641c-.907-.425-1.731-.637-2.47-.637-.944,0-1.877.216-2.799.648s-1.987,1.197-3.195,2.295c.505-.022.883-.033 1.132-.033 .579,0 1.355.048 2.33.143 .271.029.509.044.714.044 .359,0 .68-.088.962-.263s.569-.476.862-.9l.478.269-2.454,3.442c-1.003-.424-1.876-.725-2.62-.9s-1.496-.264-2.258-.264c-.857,0-1.618.104-2.285.313s-1.135.474-1.406.796c-.205.249-.308.472-.308.67 0,.139.088.34.263.604 .125.176.187.344.187.505 0,.183-.055.333-.165.45s-.234.176-.373.176c-.176,0-.348-.099-.516-.296s-.252-.439-.252-.725c0-.344.094-.683.281-1.016s.603-.824 1.245-1.471 1.06-1.147 1.251-1.499 .286-.695.286-1.032c0-.256-.07-.458-.209-.604s-.327-.22-.562-.22c-.44,0-.797.315-1.068.944l-.489-.005c.066-.577.187-1.015.362-1.314 .176-.299.443-.555.802-.767 .278-.161.651-.259 1.12-.296-.036-.886-.213-1.499-.53-1.839s-.771-.511-1.36-.511c-.364,0-.652.068-.863.203s-.423.394-.634.774l-.423-.126c.088-.475.208-.833.362-1.073 .242-.358.563-.637.966-.838s.831-.301 1.285-.301c.278,0 .6.018.966.055-.022-.344-.033-.632-.033-.867 0-.878.241-1.715.725-2.513 .351-.571.94-1.167 1.768-1.789-.82.262-1.373.392-1.658.392-.249,0-.908-.095-1.977-.285-.417-.081-.695-.121-.834-.121-.256,0-.488.108-.697.324s-.364.609-.467,1.18h-.56c.117-.673.278-1.189.483-1.548 .322-.534.725-.946 1.208-1.235s.97-.434 1.461-.434c.293,0 .806.106 1.538.318s1.314.318 1.747.318c.879,0 1.86-.278 2.944-.834l.236.466c-1.49.578-2.515,1.295-3.072,2.151-.367.563-.551,1.485-.551,2.766v5.125c0,.908-.093,1.612-.278,2.113s-.599,1.151-1.239,1.948c.891-.505 1.573-1.016 2.047-1.532s.776-.999.904-1.449 .191-1.228.191-2.333v-3.733c0-1.164.134-2.027.401-2.591s.731-1.061 1.391-1.493 1.825-.912 3.503-1.438zm-3.047,7.334v.494c.959.38 1.848.571 2.668.571 .491,0 .92-.047 1.29-.143s.8-.267 1.29-.516c-.131-.542-.37-1.016-.713-1.422s-.893-.821-1.647-1.246l-2.888,2.262zm0,3.798c.9-.38 1.757-.571 2.569-.571 .446,0 .862.04 1.246.118s.862.23 1.433.453v-2.822c-.549.234-1.01.394-1.383.478s-.791.126-1.251.126c-.834,0-1.706-.179-2.613-.538v2.756zm11.391-6.203 1.949,1.619-.867.84v5.973c0,.63.053,1.04.158,1.23s.215.285.327.285c.079,0 .151-.018.218-.055 .093-.051.284-.198.575-.439l.269.34-2.354,1.91c-.588-.417-.966-.811-1.135-1.18s-.253-1.016-.253-1.938v-6.126l-.824-.84 1.937-1.619zm.829-3.755h1.394l-1.515,2.372h-.439l.56-2.372zm8.229,3.755 3.418,1.603 2.044-1.032v2.47l-1.976-.384v4.984c0,.806.047,1.351.143,1.636 .124.373.384.805.779,1.295 .637.813.955,1.395.955,1.746s-.167.688-.5,1.01-1.223.819-2.667,1.493c-.491-.176-.96-.306-1.407-.39s-.872-.126-1.274-.126c-.967,0-2.084.172-3.352.516l-.154-.374 2.598-3.033-2.598-1.864v-7.949c1.451-.305 2.781-.84 3.991-1.601zm-2.052,12.835c.952-.154 1.721-.23 2.307-.23 .527,0 1.059.069 1.598.208s1.081.352 1.63.637l.451-.285c-.988-.921-1.659-1.667-2.011-2.237s-.574-1.191-.67-1.864l-3.305,3.771zm3.298-10.2-2.997-1.032v7.194l1.621,1.176 1.376-1.64v-5.698zm9.749-6.664 .11.263c-.524.337-.882.696-1.074,1.076s-.287.984-.287,1.812v3.579l3.397-2.701c.723.469 1.193.921 1.412,1.357s.328,1.177.328,2.225v4.978c0,.952-.099,1.648-.296,2.087-.315.718-.897,1.392-1.746,2.022-1.112.834-2.529,1.556-4.249,2.164l-.153-.417c1.397-.579 2.371-1.105 2.92-1.581s.908-.981 1.076-1.516c.124-.402.187-1.449.187-3.14v-4.601c0-.512-.051-.867-.153-1.065-.154-.271-.437-.538-.847-.802l-1.876,1.52v6.113l.779.785-1.927,1.576-1.96-1.576 .867-.862v-9.982c0-.907-.08-1.528-.239-1.865s-.475-.64-.946-.911l.121-.274c.387.11.696.232.93.368s.54.372.92.708c.447-.424.876-.736 1.287-.933s.884-.334 1.419-.407zm17.76-.681 4.952,1.656 .367-.646c.133-.234.227-.378.282-.433s.12-.083.194-.083 .135.025.183.076 .072.109.072.174c0,.104-.091.308-.272.612l-2.394,4.062 1.901-.126c.571-.022 1.235.059 1.992.242s1.409.467 1.955.851 .973.838 1.284,1.361 .467,1.1.467,1.729c0,1.157-.484,2.293-1.454,3.409s-2.692,2.293-5.172,3.53c-.872-.323-1.886-.662-3.041-1.018-2.061.942-3.753,1.413-5.078,1.413-.944,0-1.671-.207-2.18-.62s-.763-.891-.763-1.433c0-.578.308-1.107.922-1.586s1.526-.719 2.734-.719c.476,0 1.064.059 1.766.175l.895-1.574-1.606.125c-.381.007-.893-.046-1.537-.16s-1.173-.298-1.586-.554-.724-.571-.928-.944-.308-.765-.308-1.175c0-.651.23-1.229.691-1.734 .293-.322.775-.611 1.449-.868l-.011-.131c0-.681.302-1.462.907-2.344 .607-.882 1.711-1.971 3.317-3.267zm.552,15.14c-1.821-.609-3.313-.913-4.478-.911-.601,0-1.076.132-1.428.396-.241.176-.362.392-.362.648 0,.271.121.487.362.647 .38.264.933.396 1.657.396 1.115-.001 2.53-.392 4.249-1.176zm1.102-7.681c-.952.136-1.875.204-2.769.204-.996,0-1.702-.117-2.119-.351s-.729-.6-.934-1.098c-.527.337-.79.754-.79,1.252 0,.454.204.827.614,1.12 .542.381 1.468.571 2.778.571 .616,0 1.399-.056 2.35-.167l.87-1.531zm2.301-4.048c-1.147-.569-2.042-.951-2.685-1.145s-1.209-.291-1.698-.291c-.687,0-1.245.194-1.677.582s-.646.842-.646,1.361c0,.512.186.933.555,1.263s.928.494 1.675.494c.49,0 1.596-.073 3.313-.219l1.163-2.045zm-4.737,9.312c.69.152 1.253.292 1.688.421s1.212.387 2.327.773c1.771-.807 2.656-1.588 2.655-2.344 0-.235-.104-.447-.31-.638s-.47-.286-.789-.286c-.393,0-.875.034-1.448.102-1.596.17-2.645.255-3.145.255l-.978,1.717zm2.154-3.775c1.747-.173 2.96-.259 3.64-.259 .93,0 1.64.21 2.13.632s.735.925.735,1.512c0,.513-.239,1.012-.719,1.495s-1.509,1.087-3.089,1.809l2.233.588c.96-.593 1.7-1.234 2.221-1.922s.781-1.446.781-2.273c0-.542-.164-1.075-.49-1.598s-.828-.941-1.503-1.252c-.676-.311-1.454-.467-2.335-.467-.712,0-1.622.068-2.731.203l-.873,1.532zm14.866-4.238 2.849,1.63-1.169,1.707-2.146-1.241v7.005l2.161.965 1.148-.832 .116.47-2.718,1.998c-.701-.395-1.301-.686-1.798-.873s-1.107-.349-1.83-.488v-.264c.256-.176.424-.366.505-.571 .117-.286.176-.732.176-1.339v-6.247c.913-.416 1.814-1.056 2.706-1.92zm8.294-4.029 .11.263c-.524.337-.882.696-1.074,1.076s-.287.984-.287,1.812v3.579l3.397-2.701c.723.469 1.193.921 1.412,1.357s.328,1.177.328,2.225v4.978c0,.952-.099,1.648-.296,2.087-.315.718-.897,1.392-1.746,2.022-1.112.834-2.529,1.556-4.249,2.164l-.153-.417c1.397-.579 2.371-1.105 2.92-1.581s.908-.981 1.076-1.516c.124-.402.187-1.449.187-3.14v-4.601c0-.512-.051-.867-.153-1.065-.154-.271-.437-.538-.847-.802l-1.876,1.52v6.113l.779.785-1.927,1.576-1.96-1.576 .867-.862v-9.982c0-.907-.08-1.528-.239-1.865s-.475-.64-.946-.911l.121-.274c.387.11.696.232.93.368s.54.372.92.708c.447-.424.876-.736 1.287-.933s.884-.334 1.419-.407zm13.681,5.632v8.212c-1.1.446-1.896.812-2.387,1.098-.374.212-.732.476-1.077.791-1.063-.644-1.942-1.09-2.639-1.339-.527-.19-1.125-.3-1.792-.33l-.109-.219c.278-.234.454-.447.527-.637 .103-.249.153-.669.153-1.262v-6.028c1.342-.446 2.489-1.076 3.442-1.888 1.041.687 2.335,1.221 3.882,1.602zm-5.106,7.147 2.865,1.175v-6.972c-.9-.421-1.537-.699-1.91-.832-.264-.096-.582-.178-.955-.244v6.873zm15.184-7.147v8.212c-1.1.446-1.896.812-2.387,1.098-.374.212-.732.476-1.077.791-1.063-.644-1.942-1.09-2.639-1.339-.527-.19-1.125-.3-1.792-.33l-.109-.219c.278-.234.454-.447.527-.637 .103-.249.153-.669.153-1.262v-6.028c1.342-.446 2.489-1.076 3.442-1.888 1.041.687 2.335,1.221 3.882,1.602zm-5.106,7.147 2.865,1.175v-6.972c-.9-.421-1.537-.699-1.91-.832-.264-.096-.582-.178-.955-.244v6.873zm11.968-12.779v.285c-.578.3-.986.668-1.225,1.104s-.356,1.096-.356,1.982v9.76l1.252.933 .482-.395 .274.395-2.201,1.669c-.665-.578-1.161-.962-1.49-1.153s-.764-.362-1.304-.516v-.241c.205-.125.364-.282.478-.472s.192-.414.236-.67c.015-.088.025-.527.032-1.317v-7.84c0-.666-.025-1.129-.076-1.389s-.154-.509-.308-.747-.414-.503-.779-.796l.176-.22c.668.19 1.266.578 1.795,1.164 .548-.578 1.043-.974 1.484-1.186s.953-.328 1.53-.35z"/> <path d="m62.752,102.896c1.438,0 2.37.428 3.088,1.01 .485-.194 1.185-.369 1.748-.369 1.049-.038 1.923.486 1.749,1.36-.253,1.263-2.642,1.903-3.788,2.039-.66.078-1.534.078-2.137,0-1.282,1.865-2.195,2.759-3.438,3.594 .252.039.874.194 1.457.35 .699.175 1.593.35 2,.35 1.126,0 1.981-.369 3.166-1.398 .097-.078.194-.194.253-.136s-.059.175-.175.291c-1.418,1.321-2.098,1.884-3.361,1.884-.738,0-1.554-.175-2.098-.388-.641-.253-1.36-.583-1.612-.642-.466.369-1.438.972-2.622.991-.777.02-1.185-.137-1.166-.447 .039-.641 1.768-1.01 2.894-.99 .292,0 .68.039.913.077 1.068-.99 1.554-2.233 2.681-3.71-1.282-.271-2.409-.971-2.409-1.962s1.031-1.904 2.857-1.904zm-4.507,7.711c-.815.019-1.534.35-1.554.699-.02.252.292.33.622.311 .602,0 1.535-.389 2.04-.874-.292-.078-.7-.155-1.108-.136zm4.176-4.021c.894-1.126 2.176-2.194 3.089-2.563-.544-.369-1.496-.855-2.855-.855-1.651,0-2.583.758-2.583,1.574-.001.911 1.087,1.572 2.349,1.844zm3.147.136c1.146-.155 2.933-.835 3.205-1.98 .136-.642-.369-1.068-1.185-1.049-.447,0-1.166.232-1.534.466 .136.175.271.408.369.66 .175.505.117.719.078.719s-.02-.194-.292-.68c-.117-.214-.331-.447-.447-.544-.758.428-1.535,1.418-2.253,2.447 .583.078 1.36.058 2.059-.039zm1.128,3.244c-.136.117-.213.155-.252.117-.039-.059.059-.156.136-.233 .136-.136.408-.35.602-.485 .252-.175.524-.35.932-.563 .563-.292 1.166-.505 1.612-.524 .136,0 .292,0 .292.077 0,.039-.058.039-.214.117-.466.213-.854.544-1.398,1.068-.563.563-1.088,1.32-1.126,1.709-.02.194.058.33.272.33 .427,0 1.204-.524 1.806-1.185 .02-.194.097-.485.35-.816 .214-.291.486-.446.622-.505 .059-.136.059-.35.059-.446 0-.214-.078-.272-.02-.312 .078-.038.194.039.272.117 .155.155.272.389.233.68-.058.466-.505,1.029-1.107,1.573 .078.039.291.02.369,0 .175-.039.388-.136.66-.33 .252-.175.408-.311.622-.505 .175-.155.272-.253.33-.194s-.058.175-.252.35c-.175.155-.369.33-.622.505-.311.214-.544.311-.738.35-.175.039-.408.039-.524-.039-.505.389-1.418.952-2.215.952-.602,0-.971-.291-.952-.854 .02-.389.252-.854.622-1.243l-.02-.02c-.137.114-.214.193-.351.309zm5.77.097c.213-.292.563-.738.777-1.011 .136-.175.175-.271.136-.33-.059-.077-.175-.039-.292.02-.233.116-.524.33-.758.524-.252.214-.563.485-.835.738-.194.175-.272.233-.33.175-.039-.059.058-.155.291-.369s.661-.621 1.01-.894c.524-.408.913-.641 1.321-.641 .369,0 .485.214.485.427 0,.233-.155.486-.408.836-.155.213-.427.563-.583.776l.039.039c.214-.214.68-.68 1.185-1.088 .311-.252.622-.505.952-.719 .292-.194.447-.252.563-.271 .097-.02.35-.02.447.02 .058.019.078.097-.136.271-.272.233-.641.563-.738.894-.156.524.078.758.369.758 .233,0 .447-.175.661-.369 .136-.117.194-.155.252-.117 .039.039-.02.117-.194.292s-.447.369-.719.389c-.369.02-.66-.078-.835-.35-.136-.214-.136-.622.039-1.03-.291.214-.68.506-.835.642-.563.485-1.205,1.088-1.962,1.826-.136.136-.292.175-.505.175-.272,0-.408-.039-.253-.312 .138-.252.545-.893.856-1.301zm7.129.7c.369-.253.816-.603 1.185-.933 .117-.098.175-.116.213-.078 .039.059-.039.156-.155.253-.252.233-.874.738-1.224.972-.816.543-1.535.796-2.195.796-.719,0-1.049-.271-1.03-.777 .02-.388.194-.737.583-1.204l-.02-.02c-.058.059-.272.253-.389.35-.097.078-.155.098-.194.059-.039-.059.039-.136.116-.214 .252-.233.427-.369.719-.583 .214-.155.583-.388.952-.582 .563-.292 1.146-.544 1.671-.544h.019c.428,0 .583.271.563.524-.039.505-.661.894-1.243,1.185-.563.272-1.224.505-1.67.622-.078.155-.117.33-.117.446 0,.292.155.447.447.447 .254-.001.915-.137 1.769-.719zm-.66-.972c.485-.33.777-.738.796-1.01 .019-.175-.059-.272-.233-.272s-.466.194-.854.563c-.311.292-.796.913-1.029,1.302 .387-.098.912-.311 1.32-.583zm6.45,1.029c.466-.388 1.146-.99 1.826-1.495s1.554-1.049 2.117-1.049c.427,0 .661.194.602.524-.039.35-.466.796-.777,1.185-.311.369-.641.777-.777,1.049-.117.233-.097.35-.039.447s.214.136.369.136c.68,0 1.302-.214 1.865-.485 .738-.35 1.535-1.068 2.02-1.69 .408-.524.758-1.282.758-2.195 0-1.689-1.185-2.33-2.448-2.33-.33,0-.602.058-.815.155-.097.039-.175.077-.214.039-.02-.039.039-.098.155-.156 .252-.116.524-.213.894-.213 1.515-.039 3.011.66 3.011,2.486 0,1.049-.583,1.864-1.01,2.389-.544.68-1.34,1.243-2.292,1.71-.544.271-1.438.524-2.312.524h-.02c-.544,0-.933-.117-.933-.563 0-.486.486-1.029.816-1.438 .292-.35.622-.738.816-.952 .078-.097.117-.214.02-.271s-.369.058-.505.116c-.35.175-.894.505-1.515.99-.854.661-1.321,1.107-2.175,1.769-.175.136-.311.175-.505.175-.311,0-.369-.059-.253-.312 .194-.407.68-1.088 1.03-1.515 .33-.408.68-.758.816-.952 .078-.097.097-.232-.02-.271s-.272.02-.486.116c-.35.175-.932.524-1.515.99-.854.661-1.321,1.107-2.175,1.769-.175.136-.292.175-.505.175-.272,0-.408-.039-.253-.312 .136-.252.563-.894.855-1.301s.563-.738.777-1.011c.136-.175.175-.271.136-.33-.059-.077-.175-.039-.292.02-.233.116-.524.33-.758.524-.252.214-.563.485-.835.738-.194.175-.272.233-.331.175-.039-.059.059-.155.292-.369s.661-.621 1.01-.894c.524-.408.913-.641 1.321-.641 .369,0 .486.214.486.427 0,.233-.156.486-.408.836-.292.388-.699.912-.913,1.224l.02.02c.466-.389 1.107-.952 1.787-1.457s1.535-1.049 2.098-1.049c.486,0 .68.232.622.563-.058.311-.427.718-.757,1.106s-.524.622-.699.854l.018.02zm11.268.913h-.02c-.389,0-.563-.194-.563-.485 0-.253.117-.505.292-.758 .389-.582.952-1.185 1.457-1.689 .369-.369.505-.486.894-.486 .408,0 .447.059.214.312-.35.389-.661.757-1.049,1.243-.33.407-.563.757-.68.951-.116.214-.136.35-.058.428 .097.078.272.039.466-.059s.524-.311.854-.582c.408-.331.583-.486.894-.777 .175-.155.252-.233.311-.175s-.156.253-.214.311c-.233.233-.719.66-1.107.972s-1.051.794-1.691.794zm3.088-5.671c.136-.291.408-.369.757-.369 .292,0 .408.214.175.505-.233.312-.719.524-.913.524-.096-.117-.116-.408-.019-.66zm-.33,3.943c-.155.136-.252.233-.311.175s.078-.194.272-.369c.427-.389.952-.874 1.321-1.224 .369-.33 1.127-1.029 1.768-1.612 .214-.194.486-.389.758-.389 .427,0 .311.098-.02.485-1.146,1.341-3.108,3.886-4.992,6.43-1.709,2.312-2.175,2.953-3.477,4.992-.155.253-.155.35-.116.389 .058.059.155,0 .252-.116 .252-.292.952-1.302 1.515-2.099 .408-.582 1.301-1.768 2.234-3.011 .796-1.049 1.612-2.098 2.35-2.972 .505-.583 1.185-1.263 1.709-1.651s1.166-.757 1.67-.757c.427,0 .622.194.583.505-.039.33-.447.758-.796,1.165-.311.35-.563.642-.68.836-.155.252-.136.388-.058.446 .097.078.292.059.524-.059s.544-.311.894-.582 .641-.524.894-.758c.097-.098.233-.214.292-.155s-.097.194-.156.252c-.213.214-.796.719-1.185,1.011-.408.311-1.088.776-1.749.776-.485,0-.66-.271-.622-.563 .059-.408.505-.913.855-1.302 .311-.35.699-.777.835-.972 .078-.116.078-.213 0-.252s-.272.02-.427.097c-.622.311-1.263.797-2.02,1.612-.602.66-1.787,2.137-2.816,3.516-.855,1.146-1.768,2.351-2.351,3.205-.622.913-1.321,1.904-1.67,2.195-.155.136-.369.233-.563.194-.213-.039-.33-.194-.33-.408 0-.446.35-1.049.738-1.632 .719-1.088 1.321-1.942 2.719-3.826 .933-1.282 3.108-4.118 4.099-5.342-.894.818-1.632,1.497-1.943,1.77zm9.5.758c.544-.33.952-.68 1.282-.972 .097-.077.194-.175.252-.116 .039.039-.039.155-.214.311-.194.175-.563.485-.99.777s-.855.505-1.224.66c-.35.155-1.049.35-1.631.35-1.03,0-1.243-.621-1.166-1.165 .078-.563.524-1.03.991-1.011 .272.02.408.214.369.428-.039.194-.175.35-.428.485-.175.098-.427.311-.447.583-.019.311.214.485.563.485 .389,0 .874-.311 1.301-1.049 .35-.563.7-1.729.913-1.981v-.02c-.194.194-.602.505-.932.738-.272.194-.583.389-.738.466-.078.039-.155.078-.194.02-.02-.058 0-.097.097-.155 .194-.116.505-.311.816-.544 .35-.252.699-.544 1.146-.932 .039-.078.175-.233.311-.331 .214-.155.428-.213.563-.213 .447,0 .155.252-.097.407-.175.117-.369.194-.466.292-.155.155-.136.311-.136.524 .02.544.058,1.049-.175,1.593-.117.271-.389.641-.622.796 .215-.077.545-.232.856-.426zm2.02-1.361c-.292.233-.505.408-.699.583-.156.136-.233.194-.292.155-.039-.039 0-.116.213-.311 .214-.194.913-.777 1.379-1.088 .505-.35.757-.428 1.126-.428 .408,0 .447.059.214.312-.252.271-.622.719-1.01,1.204-.311.408-.622.835-.719,1.049-.078.155-.078.291-.02.35 .078.078.253.059.447-.039 .428-.232.855-.544 1.457-1.01 .933-.719 1.476-1.204 2.098-1.689 .156-.117.272-.214.563-.214 .33,0 .524.038.292.311-.35.428-.641.738-1.03,1.243-.33.408-.583.758-.718.99-.117.194-.136.369-.059.428 .097.078.252.039.447-.059 .194-.097.563-.33.874-.582 .389-.312.719-.603.933-.797 .116-.116.233-.194.272-.136 .058.039-.097.194-.156.252-.233.233-.718.642-1.185,1.011-.35.271-1.03.776-1.67.776-.389,0-.603-.175-.603-.466 0-.271.136-.544.311-.797 .213-.311.583-.68.913-1.01l-.02-.02c-.389.311-1.049.836-1.554,1.224-.796.603-1.496,1.068-2.078,1.068-.408,0-.661-.194-.641-.544 .02-.271.194-.563.369-.796 .388-.524.777-.991 1.379-1.554-.134.06-.542.352-.833.584zm7.829-1.126c.369,0 .485.214.485.427 0,.233-.155.486-.408.836-.292.388-.699.912-.913,1.224l.02.02c.466-.389 1.107-.952 1.787-1.457s1.535-1.049 2.098-1.049c.486,0 .68.232.622.563-.058.311-.427.718-.757,1.106s-.524.622-.699.854l.02.02c.447-.388 1.146-.99 1.826-1.495s1.535-1.049 2.117-1.049c.427,0 .641.214.602.524-.058.35-.466.796-.777,1.185-.311.369-.524.68-.641.854-.155.233-.155.369-.078.428 .097.077.311,0 .466-.078 .233-.116.505-.271.932-.602 .331-.253.719-.603.933-.797 .117-.097.194-.175.252-.116 .039.039-.02.116-.155.252-.175.175-.758.699-1.166,1.011-.389.291-1.146.776-1.748.776-.389,0-.603-.175-.583-.505 .02-.446.486-.951.816-1.359 .292-.35.563-.66.816-.952 .078-.097.117-.214.02-.271s-.311.02-.505.116c-.35.175-.894.505-1.515.99-.854.661-1.321,1.107-2.175,1.769-.175.136-.311.175-.505.175-.311,0-.369-.059-.253-.312 .194-.407.68-1.088 1.03-1.515 .33-.408.68-.758.816-.952 .078-.097.097-.232-.02-.271s-.272.02-.486.116c-.35.175-.932.524-1.515.99-.854.661-1.321,1.107-2.175,1.769-.175.136-.292.175-.505.175-.272,0-.408-.039-.253-.312 .136-.252.563-.894.855-1.301s.563-.738.777-1.011c.136-.175.175-.271.136-.33-.059-.077-.175-.039-.292.02-.233.116-.524.33-.758.524-.252.214-.563.485-.835.738-.194.175-.272.233-.33.175-.039-.059.058-.155.291-.369s.661-.621 1.01-.894c.523-.407.912-.64 1.32-.64zm14.337.68c.603-.874 1.515-2.001 2.506-3.146 .68-.797 1.476-1.632 2.312-2.409 .213-.214.447-.33.719-.33 .193,0 .271.059.291.136-.524.505-1.496,1.573-2.215,2.409-.641.738-1.301,1.534-2.428,2.972-.602.777-1.438,1.923-1.611,2.233-.137.233-.137.389-.059.447 .097.077.291,0 .446-.078 .194-.097.563-.35.874-.602 .408-.33.719-.603.933-.797 .116-.097.214-.194.272-.136s-.039.155-.253.35c-.253.233-.719.641-1.088.933-.389.311-1.029.776-1.671.776-.369,0-.543-.175-.563-.407-.02-.214.097-.486.271-.699l-.02-.02c-.524.466-1.398,1.088-2.137,1.126-.428.02-.854-.136-.796-.776 .059-.467.447-1.146 1.399-1.846 .641-.466 1.748-.933 2.39-.815 .37.077.505.329.428.679zm-3.109,2.467c.35,0 1.088-.428 1.613-.913 .621-.544 1.32-1.379 1.34-1.689 .02-.253-.137-.35-.35-.35-.389,0-1.088.524-1.787,1.224-.738.719-1.127,1.243-1.088,1.534 .02.136.117.194.252.194h.02zm9.889.291h-.02c-.369,0-.602-.175-.583-.524 .02-.466.428-1.204.991-1.962 .485-.66 1.029-1.379 1.573-2.02-.563.252-1.029.466-1.398.602-.66.253-1.321.447-1.749.486 .059.038.117.077.176.136 .175.155.271.389.232.68-.058.466-.544,1.088-1.068,1.534-.563.486-1.554,1.127-2.408,1.127-.603,0-.99-.311-.952-.854 .02-.389.253-.854.622-1.243l-.02-.02-.35.311c-.137.117-.214.155-.253.117-.038-.059.059-.156.136-.233 .137-.136.408-.35.603-.485 .253-.175.524-.35.933-.563 .582-.292 1.107-.467 1.573-.544 .272-.039.719-.098 1.127-.194s.738-.194 1.359-.428c.389-.136.933-.389 1.632-.719 .777-1.01 2.486-2.972 3.166-3.671 1.67-1.689 3.263-2.7 4.234-2.7 .603,0 .874.408.815.854-.116.816-1.554,2.195-3.186,3.244-1.243.797-2.952,1.729-3.923,2.137-.369.447-.894,1.166-1.573,2.098-.506.68-.933,1.418-1.107,1.807-.098.194-.194.428-.059.544 .136.098.428-.02.603-.116 .252-.136.524-.33.796-.544 .35-.272.603-.485.854-.719 .078-.078.233-.214.292-.155 .039.038-.02.116-.136.232-.233.233-.719.661-1.186,1.011-.387.308-1.105.774-1.746.774zm-4.079-.136c.407,0 1.146-.524 1.671-1.068 .504-.505 1.029-1.34 1.068-1.845 .019-.117-.02-.233-.137-.272s-.252.02-.369.078c-.447.194-.912.602-1.398,1.068-.602.582-1.068,1.32-1.127,1.709-.02.194.059.33.272.33h.02zm11.227-7.168c1.437-.951 2.758-2.428 2.836-3.127 .038-.33-.078-.563-.486-.563-.485,0-1.398.447-2.428,1.516-1.068,1.106-2.855,3.243-3.612,4.254 .874-.389 2.311-1.167 3.69-2.08zm-4.254,5.556c-.136.117-.213.155-.252.117-.039-.059.059-.156.136-.233 .136-.136.408-.35.603-.485 .252-.175.524-.35.932-.563 .563-.292 1.166-.505 1.612-.524 .136,0 .291,0 .291.077 0,.039-.058.039-.213.117-.467.213-.855.544-1.398,1.068-.563.563-1.088,1.32-1.127,1.709-.02.194.059.33.272.33 .427,0 1.204-.524 1.806-1.185 .02-.194.098-.485.35-.816 .214-.291.485-.446.622-.505 .058-.136.058-.35.058-.446 0-.214-.077-.272-.019-.312 .077-.038.193.039.271.117 .155.155.271.389.233.68-.059.466-.505,1.029-1.107,1.573 .077.039.291.02.369,0 .175-.039.389-.136.66-.33 .253-.175.408-.311.622-.505 .175-.155.271-.253.33-.194s-.059.175-.253.35c-.175.155-.369.33-.621.505-.312.214-.544.311-.738.35-.175.039-.408.039-.524-.039-.505.389-1.418.952-2.215.952-.602,0-.971-.291-.951-.854 .02-.389.252-.854.621-1.243l-.02-.02c-.136.114-.213.193-.35.309zm5.77.097c.214-.292.563-.738.777-1.011 .136-.175.175-.271.136-.33-.058-.077-.175-.039-.291.02-.233.116-.524.33-.758.524-.252.214-.563.485-.835.738-.194.175-.272.233-.33.175-.039-.059.058-.155.291-.369s.66-.621 1.01-.894c.524-.408.913-.641 1.321-.641 .369,0 .485.214.485.427 0,.233-.155.486-.407.836-.156.213-.428.563-.583.776l.039.039c.213-.214.68-.68 1.185-1.088 .311-.252.621-.505.952-.719 .291-.194.446-.252.563-.271 .098-.02.35-.02.447.02 .059.019.077.097-.136.271-.272.233-.642.563-.738.894-.155.524.077.758.369.758 .232,0 .446-.175.66-.369 .136-.117.194-.155.253-.117 .038.039-.02.117-.194.292s-.447.369-.719.389c-.369.02-.661-.078-.836-.35-.136-.214-.136-.622.039-1.03-.291.214-.68.506-.835.642-.563.485-1.204,1.088-1.962,1.826-.136.136-.291.175-.505.175-.272,0-.408-.039-.253-.312 .136-.252.544-.893.855-1.301zm10.355.7c.544-.33.952-.68 1.282-.972 .097-.077.194-.175.253-.116 .038.039-.039.155-.214.311-.194.175-.563.485-.991.777s-.854.505-1.224.66c-.35.155-1.049.35-1.632.35-1.029,0-1.243-.621-1.165-1.165 .078-.563.524-1.03.99-1.011 .272.02.408.214.369.428-.038.194-.175.35-.427.485-.175.098-.428.311-.447.583-.02.311.214.485.563.485 .389,0 .874-.311 1.302-1.049 .35-.563.699-1.729.913-1.981v-.02c-.194.194-.603.505-.933.738-.272.194-.583.389-.738.466-.078.039-.155.078-.194.02-.02-.058 0-.097.098-.155 .193-.116.505-.311.815-.544 .35-.252.699-.544 1.146-.932 .039-.078.176-.233.312-.331 .214-.155.427-.213.563-.213 .446,0 .155.252-.098.407-.175.117-.369.194-.466.292-.155.155-.136.311-.136.524 .019.544.058,1.049-.176,1.593-.116.271-.388.641-.621.796 .215-.077.545-.232.856-.426zm2.02-1.361c-.292.233-.505.408-.699.583-.155.136-.233.194-.292.155-.038-.039 0-.116.214-.311s.913-.777 1.379-1.088c.506-.35.758-.428 1.127-.428 .408,0 .447.059.214.312-.35.389-.66.757-1.049,1.243-.33.407-.563.757-.68.951-.117.214-.137.35-.059.428 .097.078.271.039.466-.059 .194-.097.524-.311.855-.582 .407-.331.582-.486.893-.777 .176-.155.253-.233.312-.175s-.155.253-.214.311c-.233.233-.719.66-1.107.972s-1.049.796-1.689.796c-.408,0-.583-.194-.583-.505 0-.252.136-.505.291-.738 .389-.602 1.146-1.398 1.457-1.67-.137.058-.545.35-.836.582zm3.555-3.71c.252,0 .369.214.136.505-.233.312-.719.524-.913.524-.097-.116-.116-.407-.02-.66 .117-.291.408-.369.777-.369h.02zm-1.068,4.254c-.137.117-.194.137-.233.098s0-.117.136-.233l1.418-1.263c-.252,0-.466.02-.699.02-.136,0-.233,0-.214-.097 .02-.078.214-.098.524-.117 .253-.02.467-.02.544-.02 .603-.737 1.379-1.593 1.826-2.02 .35-.35.815-.797 1.224-.797 .194,0 .272.059.291.117-.232.213-.737.757-1.185,1.262s-.796.933-1.185,1.438c.446-.02.796-.02 1.107-.02 .155,0 .291.02.271.117-.02.116-.194.097-.35.097-.428,0-.738,0-1.185.02-.389.467-1.049,1.457-1.398,2.137-.117.214-.175.485-.02.563 .116.059.33,0 .485-.078 .233-.116.563-.33.874-.582 .35-.272.68-.583.913-.777 .097-.078.214-.194.271-.136 .039.039 0,.097-.136.233-.214.213-.777.718-1.185,1.029-.35.271-1.049.796-1.787.796-.447,0-.603-.252-.583-.544 .039-.485.485-1.185 1.049-1.923-.307.254-.54.466-.773.68zm5.749.992c.059-.467.447-1.146 1.398-1.846 .642-.466 1.748-.933 2.39-.815 .389.058.524.407.408.738 .466-.486.796-.738 1.106-.738 .408-.02.447.077.253.311-.253.291-.68.777-1.088,1.282-.253.311-.505.641-.68.951-.136.233-.136.389-.059.447 .098.077.292,0 .447-.078 .194-.097.563-.35.874-.602 .407-.33.719-.603.932-.797 .117-.097.214-.194.272-.136s-.039.155-.253.35c-.252.233-.719.641-1.087.933-.389.311-1.03.776-1.671.776-.369,0-.544-.175-.563-.407-.02-.214.098-.486.272-.699l-.02-.02c-.505.446-1.398,1.088-2.137,1.126-.425.019-.851-.136-.794-.776zm1.923-1.244c-.796.776-1.126,1.282-1.088,1.534 .02.136.117.194.253.194 .369,0 1.107-.428 1.632-.913 .621-.544 1.32-1.379 1.34-1.689 .02-.253-.136-.35-.35-.35-.388.001-1.088.525-1.787,1.224zm6.373-1.418c.369,0 .485.214.485.427 0,.233-.155.486-.407.836-.292.388-.7.912-.913,1.224l.02.02c.466-.389 1.106-.952 1.787-1.457s1.534-1.049 2.098-1.049c.485,0 .68.232.621.563-.058.311-.427.718-.758,1.106s-.524.622-.699.854l.02.02c.447-.388 1.146-.99 1.826-1.495s1.534-1.049 2.117-1.049c.428,0 .641.214.603.524-.059.35-.467.796-.777,1.185-.311.369-.524.68-.641.854-.155.233-.155.369-.078.428 .098.077.311,0 .466-.078 .233-.116.506-.271.933-.602 .33-.253.719-.603.933-.797 .116-.097.194-.175.253-.116 .038.039-.02.116-.156.252-.175.175-.757.699-1.165,1.011-.389.291-1.146.776-1.748.776-.389,0-.603-.175-.583-.505 .02-.446.485-.951.816-1.359 .291-.35.563-.66.815-.952 .078-.097.116-.214.02-.271s-.311.02-.505.116c-.35.175-.894.505-1.516.99-.854.661-1.32,1.107-2.176,1.769-.175.136-.311.175-.505.175-.311,0-.369-.059-.252-.312 .194-.407.68-1.088 1.029-1.515 .33-.408.68-.758.815-.952 .078-.097.098-.232-.02-.271s-.271.02-.485.116c-.35.175-.933.524-1.515.99-.854.661-1.321,1.107-2.176,1.769-.175.136-.291.175-.505.175-.272,0-.408-.039-.253-.312 .136-.252.563-.894.854-1.301s.563-.738.777-1.011c.136-.175.175-.271.136-.33-.058-.077-.175-.039-.291.02-.233.116-.524.33-.758.524-.252.214-.563.485-.835.738-.194.175-.272.233-.33.175-.039-.059.058-.155.291-.369s.66-.621 1.01-.894c.525-.407.914-.64 1.322-.64zm10.549,2.487c.369-.253.815-.603 1.185-.933 .116-.098.175-.116.214-.078 .038.059-.039.156-.155.253-.253.233-.874.738-1.225.972-.815.543-1.534.796-2.194.796-.719,0-1.049-.271-1.029-.777 .02-.388.194-.737.582-1.204l-.02-.02c-.058.059-.271.253-.388.35-.098.078-.155.098-.194.059-.039-.059.039-.136.116-.214 .253-.233.428-.369.719-.583 .214-.155.583-.388.952-.582 .563-.292 1.146-.544 1.67-.544h.02c.428,0 .583.271.563.524-.039.505-.66.894-1.243,1.185-.563.272-1.224.505-1.671.622-.077.155-.116.33-.116.446 0,.292.155.447.447.447 .251-.001.912-.137 1.767-.719zm-.661-.972c.486-.33.777-.738.797-1.01 .02-.175-.059-.272-.233-.272s-.466.194-.854.563c-.311.292-.797.913-1.029,1.302 .387-.098.912-.311 1.319-.583zm1.963.155c-.137.117-.194.137-.233.098s0-.117.136-.233l1.418-1.263c-.252,0-.466.02-.699.02-.136,0-.233,0-.214-.097 .02-.078.214-.098.524-.117 .253-.02.467-.02.544-.02 .603-.737 1.379-1.593 1.826-2.02 .35-.35.815-.797 1.224-.797 .194,0 .272.059.291.117-.232.213-.737.757-1.185,1.262s-.796.933-1.185,1.438c.446-.02.796-.02 1.107-.02 .155,0 .291.02.271.117-.02.116-.194.097-.35.097-.428,0-.738,0-1.185.02-.389.467-1.049,1.457-1.398,2.137-.117.214-.175.485-.02.563 .116.059.33,0 .485-.078 .233-.116.563-.33.874-.582 .35-.272.68-.583.913-.777 .097-.078.214-.194.271-.136 .039.039 0,.097-.136.233-.214.213-.777.718-1.185,1.029-.35.271-1.049.796-1.787.796-.447,0-.603-.252-.583-.544 .039-.485.485-1.185 1.049-1.923-.307.254-.541.466-.773.68zm4.331,1.302c-.524.641-1.301,1.185-1.689,1.418-.175.097-.233.116-.253.097-.038-.058.039-.097.156-.232 .232-.253.543-.583.718-.952 .098-.175-.019-.271.039-.427 .078-.253.485-.408.894-.408 .175,0 .292.039.292.175-.001.076-.04.193-.157.329zm-136.822,21.351c-.524.524-1.03,1.263-1.088,1.729-.039.292.136.447.447.447 .252,0 .932-.117 1.787-.699 .369-.253.854-.661 1.166-.933 .116-.098.175-.116.213-.078 .039.059-.02.137-.155.253-.252.233-.796.699-1.146.933-.68.466-1.593.835-2.253.835-.738,0-1.088-.291-1.049-.815 .039-.603.563-1.282 1.029-1.651 .583-.505 1.768-1.146 2.486-1.029 .447.077.603.369.525.738s-.408.66-.661.66c-.33,0-.33-.272-.155-.563 .213-.369.291-.603.058-.641-.213-.041-.66.25-1.204.814zm2.409.679c-.136.117-.213.155-.252.117-.039-.059.059-.156.136-.233 .136-.136.408-.35.602-.485 .252-.175.524-.35.932-.563 .563-.292 1.166-.505 1.612-.524 .136,0 .292,0 .292.077 0,.039-.058.039-.214.117-.466.213-.854.544-1.398,1.068-.563.563-1.088,1.32-1.126,1.709-.02.194.058.33.272.33 .427,0 1.204-.524 1.806-1.185 .02-.194.097-.485.35-.816 .214-.291.486-.446.622-.505 .059-.136.059-.35.059-.446 0-.214-.078-.272-.02-.312 .078-.038.194.039.272.117 .155.155.272.389.233.68-.058.466-.505,1.029-1.107,1.573 .078.039.291.02.369,0 .175-.039.388-.136.66-.33 .252-.175.408-.311.622-.505 .175-.155.272-.253.33-.194s-.058.175-.252.35c-.175.155-.369.33-.622.505-.311.214-.544.311-.738.35-.175.039-.408.039-.524-.039-.505.389-1.418.952-2.215.952-.602,0-.971-.291-.952-.854 .02-.389.252-.854.622-1.243l-.02-.02-.351.309zm8.217,1.243c.02-.427.447-.913.816-1.359 .292-.35.583-.68.816-.952 .078-.097.117-.214.02-.271s-.311.02-.505.116c-.35.175-.894.505-1.515.99-.854.661-1.321,1.107-2.175,1.769-.175.136-.292.175-.505.175-.272,0-.408-.039-.253-.312 .136-.252.544-.894.855-1.301 .213-.292.563-.738.777-1.011 .136-.175.175-.271.136-.33-.059-.077-.175-.039-.292.02-.233.116-.524.33-.758.524-.252.214-.563.485-.835.738-.194.175-.272.233-.33.175-.039-.059.058-.155.291-.369s.661-.621 1.01-.894c.524-.408.913-.641 1.321-.641 .369,0 .485.214.485.427 0,.233-.155.486-.408.836-.292.388-.699.912-.913,1.224l.02.02c.466-.389 1.107-.952 1.787-1.457s1.535-1.049 2.117-1.049c.408,0 .641.194.602.524-.058.35-.466.796-.777,1.185-.311.369-.544.699-.641.854-.155.253-.155.369-.078.428 .097.077.311,0 .466-.078 .233-.116.505-.271.933-.602 .33-.253.718-.603.932-.797 .155-.136.214-.155.252-.116s-.02.116-.155.252c-.175.175-.758.699-1.166,1.011-.389.291-1.146.776-1.748.776-.368,0-.601-.174-.582-.505zm6.566-.446c.544-.33.952-.68 1.282-.972 .097-.077.194-.175.252-.116 .039.039-.039.155-.214.311-.194.175-.563.485-.99.777s-.855.505-1.224.66c-.35.155-1.049.35-1.631.35-1.03,0-1.243-.621-1.166-1.165 .078-.563.524-1.03.991-1.011 .272.02.408.214.369.428-.039.194-.175.35-.428.485-.175.098-.427.311-.447.583-.019.311.214.485.563.485 .389,0 .874-.311 1.301-1.049 .35-.563.7-1.729.913-1.981v-.02c-.194.194-.602.505-.932.738-.272.194-.583.389-.738.466-.078.039-.155.078-.194.02-.02-.058 0-.097.097-.155 .194-.116.505-.311.816-.544 .35-.252.699-.544 1.146-.932 .039-.078.175-.233.311-.331 .214-.155.428-.213.563-.213 .447,0 .155.252-.097.407-.175.117-.369.194-.466.292-.155.155-.136.311-.136.524 .02.544.058,1.049-.175,1.593-.117.271-.389.641-.622.796 .215-.076.545-.231.856-.426zm4.196,0c.369-.253.816-.603 1.185-.933 .117-.098.175-.116.213-.078 .039.059-.039.156-.155.253-.252.233-.874.738-1.224.972-.816.543-1.535.796-2.195.796-.719,0-1.049-.271-1.03-.777 .02-.388.194-.737.583-1.204l-.02-.02c-.058.059-.272.253-.389.35-.097.078-.155.098-.194.059-.039-.059.039-.136.117-.214 .252-.233.427-.369.719-.583 .214-.155.583-.388.952-.582 .563-.292 1.146-.544 1.671-.544h.019c.428,0 .583.271.563.524-.039.505-.661.894-1.243,1.185-.563.272-1.224.505-1.67.622-.078.155-.117.33-.117.446 0,.292.155.447.447.447 .253,0 .914-.137 1.768-.719zm-.66-.971c.485-.33.777-.738.796-1.01 .019-.175-.059-.272-.233-.272s-.466.194-.854.563c-.311.292-.796.913-1.03,1.302 .389-.098.913-.311 1.321-.583zm2.642,1.981c-.718,0-1.068-.291-1.029-.815 .039-.389.252-.797.563-1.166l-.02-.02c-.058.059-.214.194-.33.292s-.214.155-.253.116c-.039-.059.039-.136.117-.214 .252-.233.427-.369.719-.583 .214-.155.602-.407.933-.582 .66-.35 1.282-.603 1.787-.524 .447.077.603.369.525.738s-.408.66-.661.66c-.33,0-.33-.272-.155-.563 .213-.369.291-.603.058-.641-.213-.039-.66.252-1.204.815-.524.524-1.03,1.263-1.088,1.729-.039.292.136.447.447.447 .252,0 .932-.117 1.787-.699 .369-.253.854-.661 1.166-.933 .116-.098.175-.116.213-.078 .039.059-.039.137-.155.253-.252.233-.796.699-1.146.933-.68.466-1.593.835-2.253.835h-.021zm3.477-1.826c-.136.117-.194.137-.233.098s0-.117.136-.233l1.418-1.263c-.252,0-.466.02-.699.02-.136,0-.233,0-.213-.097 .019-.078.213-.098.524-.117 .252-.02.466-.02.544-.02 .602-.737 1.379-1.593 1.826-2.02 .35-.35.816-.797 1.224-.797 .194,0 .272.059.292.117-.233.213-.738.757-1.185,1.262s-.796.933-1.185,1.438c.447-.02.796-.02 1.107-.02 .155,0 .292.02.272.117-.02.116-.194.097-.35.097-.427,0-.738,0-1.185.02-.388.467-1.049,1.457-1.398,2.137-.117.214-.175.485-.02.563 .117.059.331,0 .486-.078 .233-.116.563-.33.874-.582 .35-.272.68-.583.913-.777 .097-.078.213-.194.272-.136 .039.039 0,.097-.136.233-.213.213-.777.718-1.185,1.029-.35.271-1.049.796-1.787.796-.447,0-.603-.252-.583-.544 .039-.485.486-1.185 1.049-1.923-.311.253-.544.466-.778.68zm3.906-.544c-.292.233-.505.408-.699.583-.156.136-.233.194-.292.155-.039-.039 0-.116.213-.311 .214-.194.913-.777 1.379-1.088 .505-.35.757-.428 1.126-.428 .408,0 .447.059.214.312-.252.271-.622.719-1.01,1.204-.311.408-.622.835-.719,1.049-.078.155-.078.291-.019.35 .078.078.252.059.446-.039 .428-.232.855-.544 1.457-1.01 .933-.719 1.476-1.204 2.098-1.689 .156-.117.272-.214.563-.214 .33,0 .524.038.292.311-.35.428-.641.738-1.03,1.243-.33.408-.583.758-.719.99-.116.194-.136.369-.058.428 .097.078.252.039.447-.059 .194-.097.563-.33.874-.582 .389-.312.719-.603.933-.797 .116-.116.233-.194.272-.136 .058.039-.097.194-.156.252-.233.233-.718.642-1.185,1.011-.35.271-1.03.776-1.67.776-.389,0-.603-.175-.603-.466 0-.271.136-.544.311-.797 .214-.311.583-.68.913-1.01l-.02-.02c-.389.311-1.049.836-1.554,1.224-.796.603-1.496,1.068-2.078,1.068-.408,0-.661-.194-.641-.544 .02-.271.194-.563.369-.796 .388-.524.777-.991 1.379-1.554-.134.059-.542.351-.833.584zm14.433.428c.116-.098.175-.116.213-.078 .039.059-.02.137-.155.253-.252.233-.796.699-1.146.933-.816.544-1.593.835-2.253.835-.719,0-1.068-.311-1.068-.796 0-.214.097-.525.272-.816-.136-.02-.33-.059-.524-.155-.389-.194-.602-.583-.583-.933-.214.117-.583.408-.816.603-.563.485-1.205,1.088-1.962,1.826-.136.136-.292.175-.505.175-.272,0-.408-.039-.253-.312 .136-.252.544-.894.855-1.301 .213-.292.563-.738.777-1.011 .136-.175.175-.271.136-.33-.059-.077-.175-.039-.292.02-.233.116-.524.33-.758.524-.252.214-.563.485-.835.738-.194.175-.272.233-.331.175-.039-.059.059-.155.292-.369s.661-.621 1.01-.894c.524-.408.913-.641 1.321-.641 .369,0 .486.214.486.427 0,.253-.214.563-.408.836-.155.213-.427.563-.583.776l.039.039c.214-.214.738-.719 1.185-1.088 .311-.252.622-.505.952-.719 .292-.194.486-.252.583-.271 .175-.039.35-.02.427.02 .058.038.136.194-.078.311-.563.311-.719.524-.738.699-.02.194.02.408.292.544 .116.059.33.116.427.116 .252-.33.757-.815 1.36-1.146 .563-.312 1.204-.563 1.729-.563 .408,0 .602.271.583.524-.039.505-.641.951-1.243,1.185-.622.233-1.205.292-1.554.292-.233.33-.252.621-.252.757 0,.272.155.447.447.447 .427,0 .991-.194 1.768-.699 .367-.254.872-.662 1.183-.933zm-1.827-.039c.641-.33.796-.758.796-1.029 0-.136-.058-.233-.233-.233s-.466.175-.855.524c-.35.33-.738.758-.913.991 .215.019.778-.04 1.205-.253zm4.255-.252c-.155.213-.427.563-.583.776l.039.039c.214-.214.738-.719 1.185-1.088 .311-.252.563-.446.894-.66 .116-.214.369-.369.563-.389 .156-.02.389.02.447.116 .02.039.039.117-.155.292-.233.214-.311.485-.194.738 .136.291.524.446 1.146.446 .389,0 .816-.136 1.127-.33 .175-.098.272-.194.311-.155s-.019.136-.213.271c-.272.194-.796.408-1.243.428-.428.02-.913-.039-1.243-.194-.389-.194-.603-.583-.583-.933-.33.214-.796.583-1.029.777-.563.485-1.205,1.088-1.962,1.826-.136.136-.292.175-.505.175-.272,0-.408-.039-.253-.312 .136-.252.544-.894.855-1.301 .213-.292.563-.738.777-1.011 .136-.175.175-.271.136-.33-.059-.077-.175-.039-.292.02-.233.116-.524.33-.758.524-.252.214-.563.485-.835.738-.194.175-.272.233-.33.175-.039-.059.058-.155.291-.369s.661-.621 1.01-.894c.524-.408.913-.641 1.321-.641 .369,0 .485.214.485.427-.001.256-.214.566-.409.839zm6.723,1.398c.059-.467.447-1.146 1.399-1.846 .641-.466 1.748-.933 2.389-.815 .388.058.524.407.408.738 .466-.486.796-.738 1.107-.738 .408-.02.447.077.252.311-.252.291-.68.777-1.088,1.282-.252.311-.505.641-.68.951-.136.233-.136.389-.059.447 .097.077.292,0 .447-.078 .194-.097.563-.35.875-.602 .408-.33.718-.603.932-.797 .117-.097.214-.194.272-.136s-.039.155-.252.35c-.252.233-.719.641-1.088.933-.389.311-1.029.776-1.67.776-.369,0-.544-.175-.563-.407-.02-.214.097-.486.272-.699l-.02-.02c-.505.446-1.398,1.088-2.137,1.126-.427.02-.855-.135-.796-.776zm1.923-1.243c-.796.776-1.127,1.282-1.088,1.534 .02.136.117.194.252.194 .369,0 1.107-.428 1.632-.913 .622-.544 1.321-1.379 1.34-1.689 .019-.253-.136-.35-.35-.35-.388,0-1.087.525-1.786,1.224zm7.44-1.418c.369.058.505.369.427.66h.02c.602-.874 1.496-1.981 2.486-3.127 .68-.797 1.476-1.632 2.312-2.409 .213-.214.447-.33.719-.33 .194,0 .272.059.292.136-.525.505-1.496,1.573-2.215,2.409-.641.738-1.301,1.534-2.428,2.972-.602.777-1.438,1.923-1.612,2.233-.136.233-.136.389-.058.447 .097.077.291,0 .447-.078 .194-.097.563-.35.874-.602 .408-.33.719-.603.932-.797 .117-.097.214-.194.272-.136s-.039.155-.252.35c-.252.233-.719.641-1.088.933-.388.311-1.029.776-1.67.776-.369,0-.544-.175-.563-.407-.019-.214.097-.486.272-.699l-.019-.02c-.505.446-1.399,1.088-2.137,1.126-.428.02-.875-.155-.796-.776 .039-.292.194-.603.543-1.011l-.019-.019c-.059.058-.136.136-.252.232-.078.059-.136.098-.175.059-.039-.059.097-.214.311-.408 .058-.059.35-.291.544-.427s.505-.35.894-.544c.676-.349 1.395-.621 1.939-.543zm-1.865,1.418c-.796.776-1.126,1.282-1.088,1.534 .02.136.117.194.252.194 .369,0 1.107-.428 1.632-.913 .622-.544 1.321-1.379 1.34-1.689 .02-.253-.136-.35-.35-.35-.387,0-1.087.525-1.786,1.224zm4.799-.292c-.292.233-.505.408-.699.583-.156.136-.233.194-.292.155-.039-.039 0-.116.213-.311 .214-.194.913-.777 1.379-1.088 .505-.35.757-.428 1.126-.428 .408,0 .447.059.214.312-.35.389-.661.757-1.049,1.243-.331.407-.563.757-.68.951-.116.214-.136.35-.058.428 .097.078.272.039.466-.059s.524-.311.854-.582c.408-.331.583-.486.894-.777 .175-.155.252-.233.311-.175s-.155.253-.213.311c-.233.233-.719.66-1.107.972s-1.049.796-1.69.796c-.408,0-.583-.194-.583-.505 0-.252.136-.505.292-.738 .388-.602 1.146-1.398 1.457-1.67-.136.057-.544.349-.835.582zm3.555-3.71c.252,0 .369.214.136.505-.233.312-.719.524-.913.524-.097-.116-.116-.407-.019-.66 .116-.291.408-.369.777-.369h.019zm2.02,5.07c.544-.33.952-.68 1.282-.972 .098-.077.194-.175.252-.116 .039.039-.038.155-.213.311-.194.175-.563.485-.99.777s-.855.505-1.225.66c-.35.155-1.049.35-1.631.35-1.03,0-1.243-.621-1.166-1.165 .078-.563.524-1.03.991-1.011 .272.02.408.214.369.428-.039.194-.175.35-.428.485-.175.098-.427.311-.447.583-.019.311.214.485.563.485 .389,0 .874-.311 1.301-1.049 .35-.563.7-1.729.913-1.981v-.02c-.194.194-.602.505-.932.738-.272.194-.583.389-.738.466-.078.039-.155.078-.194.02-.02-.058 0-.097.097-.155 .194-.116.505-.311.816-.544 .35-.252.699-.544 1.146-.932 .039-.078.175-.233.31-.331 .215-.155.428-.213.564-.213 .446,0 .154.252-.098.407-.175.117-.369.194-.467.292-.155.155-.135.311-.135.524 .02.544.058,1.049-.175,1.593-.117.271-.389.641-.622.796 .216-.076.546-.231.857-.426zm1.301-.758c-.155.136-.252.233-.311.175s.077-.194.271-.369c.428-.389.952-.874 1.32-1.224 .369-.33 1.127-1.029 1.768-1.612 .215-.194.486-.389.758-.389 .428,0 .311.098-.02.485-1.146,1.341-3.107,3.886-4.992,6.43-1.708,2.312-2.175,2.953-3.477,4.992-.155.253-.155.35-.116.389 .058.059.155,0 .252-.116 .252-.292.952-1.302 1.515-2.099 .408-.582 1.301-1.768 2.233-3.011 .797-1.049 1.613-2.098 2.351-2.972 .505-.583 1.185-1.263 1.71-1.651s1.165-.757 1.67-.757c.428,0 .621.194.583.505-.039.33-.446.758-.796,1.165-.312.35-.564.642-.681.836-.155.252-.136.388-.058.446 .097.078.291.059.523-.059s.545-.311.895-.582 .641-.524.893-.758c.098-.098.233-.214.292-.155s-.097.194-.155.252c-.214.214-.797.719-1.186,1.011-.408.311-1.088.776-1.748.776-.485,0-.66-.271-.621-.563 .059-.408.505-.913.854-1.302 .311-.35.699-.777.835-.972 .078-.116.078-.213 0-.252s-.271.02-.428.097c-.621.311-1.262.797-2.02,1.612-.602.66-1.787,2.137-2.816,3.516-.855,1.146-1.768,2.351-2.351,3.205-.622.913-1.321,1.904-1.67,2.195-.155.136-.369.233-.563.194-.213-.039-.33-.194-.33-.408 0-.446.35-1.049.738-1.632 .719-1.088 1.321-1.942 2.719-3.826 .933-1.282 3.107-4.118 4.099-5.342-.891.818-1.629,1.498-1.94,1.77zm7.073-.602c-.292.233-.506.408-.699.583-.156.136-.234.194-.292.155-.039-.039 0-.116.214-.311 .213-.194.912-.777 1.379-1.088 .505-.35.758-.428 1.127-.428 .408,0 .446.059.214.312-.351.389-.661.757-1.05,1.243-.33.407-.563.757-.68.951-.116.214-.136.35-.059.428 .098.078.272.039.467-.059 .194-.097.524-.311.854-.582 .408-.331.583-.486.894-.777 .175-.155.253-.233.311-.175s-.155.253-.213.311c-.233.233-.719.66-1.107.972s-1.049.796-1.69.796c-.407,0-.583-.194-.583-.505 0-.252.137-.505.292-.738 .388-.602 1.146-1.398 1.456-1.67-.136.057-.544.349-.835.582zm3.554-3.71c.252,0 .368.214.136.505-.233.312-.719.524-.913.524-.098-.116-.116-.407-.02-.66 .116-.291.408-.369.777-.369h.02zm-.388,6.08c-.719,0-1.068-.291-1.029-.815 .039-.389.252-.797.563-1.166l-.02-.02c-.059.059-.214.194-.33.292s-.214.155-.253.116c-.039-.059.039-.136.116-.214 .253-.233.428-.369.719-.583 .214-.155.603-.407.933-.582 .66-.35 1.282-.603 1.787-.524 .446.077.603.369.524.738s-.408.66-.66.66c-.33,0-.33-.272-.155-.563 .213-.369.291-.603.058-.641-.214-.039-.66.252-1.204.815-.524.524-1.029,1.263-1.088,1.729-.039.292.136.447.447.447 .252,0 .932-.117 1.787-.699 .369-.253.854-.661 1.165-.933 .116-.098.175-.116.214-.078 .039.059-.039.137-.155.253-.253.233-.797.699-1.146.933-.68.466-1.593.835-2.253.835h-.02zm4.137-2.37c-.291.233-.505.408-.699.583-.155.136-.233.194-.291.155-.039-.039 0-.116.213-.311 .214-.194.913-.777 1.379-1.088 .506-.35.758-.428 1.127-.428 .408,0 .447.059.214.312-.35.389-.66.757-1.049,1.243-.33.407-.563.757-.68.951-.116.214-.136.35-.059.428 .098.078.271.039.466-.059 .194-.097.524-.311.855-.582 .407-.331.582-.486.894-.777 .175-.155.252-.233.311-.175s-.155.253-.214.311c-.233.233-.719.66-1.107.972s-1.049.796-1.689.796c-.408,0-.583-.194-.583-.505 0-.252.136-.505.292-.738 .388-.602 1.146-1.398 1.456-1.67-.136.057-.545.349-.836.582zm3.555-3.71c.252,0 .369.214.136.505-.233.312-.719.524-.913.524-.097-.116-.116-.407-.02-.66 .117-.291.408-.369.777-.369h.02zm2.292,5.516c.02-.427.446-.913.815-1.359 .291-.35.583-.68.815-.952 .078-.097.117-.214.02-.271s-.311.02-.505.116c-.35.175-.894.505-1.515.99-.854.661-1.321,1.107-2.176,1.769-.175.136-.291.175-.505.175-.272,0-.408-.039-.253-.312 .136-.252.544-.894.854-1.301 .214-.292.563-.738.777-1.011 .136-.175.175-.271.136-.33-.058-.077-.175-.039-.291.02-.233.116-.524.33-.758.524-.252.214-.563.485-.835.738-.194.175-.272.233-.33.175-.039-.059.058-.155.291-.369s.66-.621 1.01-.894c.524-.408.913-.641 1.321-.641 .369,0 .485.214.485.427 0,.233-.155.486-.407.836-.292.388-.7.912-.913,1.224l.02.02c.466-.389 1.106-.952 1.787-1.457s1.534-1.049 2.117-1.049c.407,0 .641.194.602.524-.058.35-.466.796-.776,1.185-.312.369-.544.699-.642.854-.155.253-.155.369-.077.428 .097.077.311,0 .466-.078 .233-.116.505-.271.933-.602 .33-.253.719-.603.932-.797 .156-.136.214-.155.253-.116s-.02.116-.155.252c-.175.175-.758.699-1.165,1.011-.389.291-1.146.776-1.749.776-.369,0-.602-.174-.582-.505zm7.635-.039c.719-.388 2.331-1.379 3.089-1.98 1.282-1.03 2.603-2.486 2.603-4.352 0-1.689-1.243-2.312-2.195-2.312-.68,0-1.379.233-1.748.505-.136.098-.213.155-.232.117-.02-.02.02-.117.155-.233 .35-.33 1.107-.642 1.942-.642 1.165,0 2.583.758 2.583,2.584 0,1.942-1.65,3.496-3.011,4.564-.874.68-2.408,1.555-3.127,1.942-.563.312-1.496.758-2.137,1.107-.642.933-2.001,2.72-2.564,3.341-1.301,1.438-2.816,2.642-4.001,3.264-.447.233-.952.408-1.321.408h-.02c-.466,0-1.01-.156-.912-.816 .155-1.165 2.428-2.816 3.962-3.807 1.787-1.146 2.564-1.555 3.904-2.39 .35-.485.991-1.359 1.302-1.826l-.02-.02c-.524.447-1.379,1.05-2.098,1.088-.428.02-.854-.136-.797-.776 .039-.292.194-.603.544-1.011l-.02-.019c-.058.058-.136.136-.252.232-.078.059-.136.098-.175.059-.039-.059.097-.214.311-.408 .059-.059.35-.291.544-.427s.505-.35.894-.544c.699-.369 1.438-.622 1.942-.544 .389.058.485.35.446.66h.02c.428-.485.642-.66.933-.66 .369,0 .466.077.253.311-.35.408-.622.777-1.011,1.282-.33.427-1.106,1.515-1.689,2.292 .426-.231 1.243-.619 1.903-.989zm-8.722,7.712c.874-.524 2.021-1.534 3.555-3.496 .777-.991 1.573-2.04 1.962-2.584-1.146.758-2.039,1.204-3.846,2.409-1.632,1.088-3.108,2.428-3.186,3.457-.02.292.097.467.311.524 .311.079.835-.076 1.204-.31zm6.002-9.187c-.796.776-1.126,1.282-1.087,1.534 .019.136.116.194.252.194 .369,0 1.107-.428 1.632-.913 .621-.544 1.321-1.379 1.34-1.689 .02-.253-.136-.35-.35-.35-.388,0-1.087.525-1.787,1.224zm11.326,1.282v-.02c0-.078.02-.214.039-.272-.35.02-.642,0-.854-.039-.603-.116-1.321-.427-1.321-1.185 0-.583.563-1.107 1.088-1.282 .059-.02.214-.058.214-.02s-.078.059-.155.098c-.467.214-.777.602-.777,1.068 0,.621.563,1.029 1.185,1.146 .194.039.428.059.681.059 .175-.524.621-.972.951-1.224 .738-.563 1.71-1.049 2.429-1.049 .427,0 .582.271.563.524-.038.505-.66.894-1.243,1.185-.563.272-1.224.505-1.67.622-.078.155-.117.33-.117.446 0,.292.156.447.428.447h.02c.252,0 .913-.137 1.768-.719 .369-.253.874-.661 1.185-.933 .117-.098.175-.116.214-.078 .039.059-.02.137-.155.253-.253.233-.797.699-1.146.933-.815.544-1.612.835-2.272.835-.725.001-1.055-.31-1.055-.795zm2.565-1.185c.485-.33.776-.738.796-1.01 .02-.175-.058-.272-.232-.272-.176,0-.467.194-.855.563-.311.292-.796.913-1.029,1.302 .387-.098.911-.311 1.32-.583zm2.777-.583c-.291.253-.583.524-.797.719-.116.098-.175.117-.213.059-.02-.059.038-.116.097-.175 .078-.078.816-.719 1.418-1.224 .505-.641 1.457-1.826 2.292-2.777 .661-.777 1.457-1.632 2.312-2.409 .233-.214.447-.33.699-.33 .194,0 .292.078.292.136-.369.369-2.079,2.254-2.895,3.225-1.302,1.573-2.7,3.38-3.108,4.273-.058.136-.175.408-.038.524 .136.098.427-.02.602-.116 .253-.136.524-.33.797-.544 .35-.272.602-.485.854-.719 .078-.078.233-.214.291-.155 .039.038-.02.116-.136.232-.233.233-.719.661-1.185,1.011-.389.291-1.107.776-1.748.776-.389,0-.622-.175-.603-.524 .02-.466.505-1.224 1.088-1.962l-.019-.02zm3.108.194c-.292.233-.505.408-.699.583-.155.136-.233.194-.292.155-.038-.039 0-.116.214-.311s.913-.777 1.379-1.088c.506-.35.758-.428 1.127-.428 .408,0 .447.059.214.312-.35.389-.66.757-1.049,1.243-.33.407-.563.757-.68.951-.117.214-.137.35-.059.428 .097.078.271.039.466-.059 .194-.097.524-.311.855-.582 .407-.331.582-.486.893-.777 .176-.155.253-.233.312-.175s-.155.253-.214.311c-.233.233-.719.66-1.107.972s-1.049.796-1.689.796c-.408,0-.583-.194-.583-.505 0-.252.136-.505.291-.738 .389-.602 1.146-1.398 1.457-1.67-.136.057-.545.349-.836.582zm3.555-3.71c.252,0 .369.214.136.505-.233.312-.719.524-.913.524-.097-.116-.116-.407-.02-.66 .117-.291.408-.369.777-.369h.02zm-1.067,4.254c-.137.117-.194.137-.233.098s0-.117.136-.233l1.418-1.263c-.252,0-.466.02-.699.02-.136,0-.233,0-.214-.097 .02-.078.214-.098.524-.117 .253-.02.467-.02.544-.02 .603-.737 1.379-1.593 1.826-2.02 .35-.35.815-.797 1.224-.797 .194,0 .272.059.291.117-.232.213-.737.757-1.185,1.262s-.796.933-1.185,1.438c.446-.02.796-.02 1.107-.02 .155,0 .291.02.271.117-.02.116-.194.097-.35.097-.428,0-.738,0-1.185.02-.389.467-1.049,1.457-1.398,2.137-.117.214-.175.485-.02.563 .116.059.33,0 .485-.078 .233-.116.563-.33.874-.582 .35-.272.68-.583.913-.777 .097-.078.214-.194.271-.136 .039.039 0,.097-.136.233-.214.213-.777.718-1.185,1.029-.35.271-1.049.796-1.787.796-.447,0-.603-.252-.583-.544 .039-.485.485-1.185 1.049-1.923-.307.253-.541.466-.773.68zm4.331,1.302c-.232.311-.699.524-.912.524-.098-.136-.098-.428-.02-.66 .097-.272.389-.369.738-.369 .331,0 .427.214.194.505z"/> <path d="m31.668 157h63.333" fill="none" stroke="#000" stroke-miterlimit="10"/> <path d="m107.67 157h63.334" fill="none" stroke="#000" stroke-miterlimit="10"/> <path d="m181.67 157h31.667" fill="none" stroke="#000" stroke-miterlimit="10"/> <path d="m52.279,166.412c0-.396.336-.731.672-.731 .3,0 .468.168.468.396-.012.156-.072.276-.216.396-.108.107-.216.18-.24.323-.024.229.216.396.815.396 .971,0 2.279-.539 3.37-1.379 1.091-.827 1.991-1.823 2.603-2.986 .048-.096.156-.275.228-.384 .108-.144.3-.359.479-.372 .144-.012.18.061.12.156-.12.168-.228.42-.288.672-.084.372-.108.911-.156,1.463-.072.924-.192,1.463-.336,1.812h.012c.768-1.116 1.847-2.519 2.65-3.37s1.607-1.476 2.339-1.476c.503,0 .731.359.744.672 0,.06 0,.12-.036.12-.024,0-.036-.072-.06-.12-.072-.192-.312-.324-.684-.324-.839,0-1.631.636-2.207,1.235-1.127,1.176-2.327,2.866-3.154,4.065-.084.108-.18.265-.3.192-.108-.06-.072-.204-.024-.324 .228-.636.336-1.163.396-1.919 .072-.768.072-1.343.204-1.703h-.012c-.48.924-1.511,1.991-2.447,2.699-1.151.863-2.435,1.403-3.454,1.427-.708.012-1.487-.204-1.487-.924v-.012z"/> <path d="m60.835,166.592c.036-.287.276-.707.863-1.139 .396-.288 1.08-.576 1.475-.504 .24.036.324.252.252.456 .288-.3.492-.456.684-.456 .252-.012.276.048.156.191-.156.181-.42.48-.672.792-.156.191-.312.396-.42.588-.083.144-.083.239-.036.275 .06.048.18,0 .276-.048 .12-.06.348-.216.54-.372 .252-.203.444-.371.576-.491 .072-.061.132-.12.168-.084s-.024.096-.156.216c-.156.144-.444.396-.672.575-.24.192-.636.48-1.031.48-.228,0-.336-.108-.348-.252-.012-.132.06-.3.168-.432l-.012-.013c-.312.276-.864.672-1.319.696-.264.014-.528-.082-.492-.478zm1.187-.768c-.492.48-.695.792-.671.948 .012.084.072.119.156.119 .228,0 .684-.264 1.007-.563 .384-.336.816-.852.828-1.043 .012-.156-.084-.216-.216-.216-.24,0-.672.324-1.104.755z"/> <path d="m65.958,164.949c.228,0 .3.132.3.264 0,.144-.096.3-.252.516-.18.24-.432.563-.563.756l.012.012c.288-.239.684-.588 1.104-.899s.947-.647 1.295-.647c.3,0 .419.144.384.348-.036.192-.264.443-.468.684s-.324.384-.432.527l.012.013c.276-.24.708-.612 1.127-.924s.947-.647 1.307-.647c.264,0 .396.132.372.324-.036.216-.288.491-.48.731-.192.228-.324.419-.396.527-.096.144-.096.228-.048.264 .06.048.191,0 .288-.048 .144-.072.312-.168.576-.372 .204-.155.444-.371.576-.491 .072-.061.12-.108.156-.072 .024.024-.012.072-.096.156-.108.107-.468.432-.72.623-.24.181-.708.48-1.08.48-.24,0-.372-.108-.359-.313 .012-.275.3-.587.503-.839 .18-.216.348-.408.504-.588 .048-.06.072-.132.012-.168s-.192.012-.312.072c-.216.107-.552.312-.936.611-.528.408-.815.684-1.343,1.092-.108.084-.192.107-.312.107-.192,0-.228-.036-.156-.191 .12-.252.42-.672.636-.936 .204-.252.419-.468.503-.588 .048-.06.06-.144-.012-.168s-.168.012-.3.072c-.216.107-.576.323-.936.611-.528.408-.815.684-1.343,1.092-.108.084-.18.107-.312.107-.168,0-.252-.023-.156-.191 .084-.156.348-.552.528-.804s.348-.456.479-.624c.084-.107.108-.168.084-.204-.036-.048-.108-.023-.18.013-.144.071-.324.203-.468.323-.156.132-.348.3-.516.456-.12.107-.168.144-.204.107-.024-.035.036-.096.18-.228s.408-.384.624-.552c.326-.25.566-.394.818-.394z"/> <path d="m72.474,166.484c.228-.156.504-.372.732-.576 .072-.06.108-.071.132-.048 .024.036-.024.097-.096.156-.156.144-.54.456-.755.6-.504.336-.948.492-1.355.492-.443,0-.647-.168-.635-.48 .012-.239.12-.455.359-.743l-.012-.012c-.036.035-.168.155-.24.216-.06.048-.096.06-.12.035-.024-.035.024-.083.072-.132 .156-.144.264-.228.444-.359 .132-.096.36-.24.588-.359 .348-.181.708-.336 1.031-.336h.012c.264,0 .36.168.348.323-.024.313-.408.552-.768.731-.348.168-.755.313-1.031.384-.048.097-.072.204-.072.276 0,.18.096.275.276.275 .154.001.562-.083 1.09-.443zm-.408-.599c.3-.204.48-.456.492-.624 .012-.107-.036-.168-.144-.168s-.288.12-.528.348c-.192.181-.492.564-.636.804 .24-.06.564-.192.816-.36z"/> <path d="m114.336,163.726c0-.336-.216-.539-.527-.552-.324-.012-.624.156-.78.313s-.18.252-.216.239c-.024-.012.012-.132.144-.275 .144-.168.479-.408.887-.384 .36.012.672.252.672.684 0,.443-.276.923-.72,1.295-.468.384-1.115.647-1.847.611-.875-.048-1.403-.432-1.391-1.175 .024-1.439 2.111-2.543 4.15-2.543 .995,0 2.039.252 2.663.804 .144-.096.479-.3.779-.42 .324-.132.731-.239 1.175-.239 .324,0 .552.096.672.18 .084.06.132.156.108.18-.036.012-.036-.036-.168-.12-.096-.06-.312-.132-.612-.132-.384,0-.779.108-1.115.252-.324.144-.612.336-.72.432 .72.792.696,1.932.132,2.771-.671.996-2.146,1.451-3.358,1.451-.624,0-1.319-.036-1.643-.06-.336.036-.852.072-1.188.072-1.079,0-1.907.012-1.895-.217 .024-.228.768-.264 1.739-.228 .432.012 1.115.096 1.607.18 .996-.287 1.595-1.235 2.327-2.099 .576-.684 1.403-1.499 1.979-1.883-.54-.552-1.607-.815-2.482-.815-1.895,0-3.622,1.175-3.646,2.53 0,.528.288.924.899.96 .684.036 1.259-.24 1.691-.624 .42-.384.684-.84.684-1.175v-.013zm-.264,3.25c1.223,0 2.279-.527 3.046-1.583 .563-.791.671-1.799.204-2.398-.419.396-.947,1.271-1.475,1.943-.936,1.127-1.751,1.619-2.782,1.931 .167.035.719.107 1.007.107z"/> <path d="m118.274,167.084h-.012c-.24,0-.348-.12-.348-.3 0-.156.072-.312.18-.468 .24-.359.587-.731.899-1.043 .228-.229.312-.301.552-.301 .252,0 .276.036.132.192-.216.24-.408.468-.647.768-.204.252-.348.468-.42.588-.072.132-.084.216-.036.264 .06.048.168.024.288-.036s.324-.191.527-.359c.252-.204.36-.3.552-.48 .108-.096.156-.144.192-.107s-.096.156-.132.191c-.144.145-.444.408-.684.6s-.647.491-1.043.491zm1.908-3.502c.084-.18.251-.229.468-.229 .18,0 .251.133.108.313-.144.191-.444.323-.564.323-.061-.071-.072-.251-.012-.407z"/> <path d="m119.979,166.017c-.096.084-.156.144-.192.107s.048-.119.167-.228l.816-.756c.228-.203.695-.635 1.091-.995 .132-.12.3-.24.468-.24 .264,0 .192.061-.012.3-.708.828-1.919,2.399-3.082,3.971-1.056,1.427-1.343,1.822-2.147,3.082-.096.156-.096.216-.072.239 .036.036.096,0 .156-.071 .156-.18.588-.804.936-1.296 .252-.359.804-1.091 1.379-1.858 .492-.647.996-1.296 1.452-1.835 .312-.36.731-.78 1.055-1.02s.72-.468 1.031-.468c.264,0 .384.12.36.312-.024.204-.276.468-.492.72-.192.216-.348.396-.419.516-.096.156-.084.24-.036.276 .06.048.18.036.324-.036s.336-.192.552-.36 .396-.323.552-.468c.06-.06.144-.132.18-.096s-.06.12-.096.156c-.132.132-.492.443-.732.623-.251.192-.671.48-1.079.48-.3,0-.408-.168-.384-.348 .036-.252.312-.564.528-.804 .192-.216.432-.48.516-.6 .048-.072.048-.132 0-.156s-.168.012-.264.06c-.384.192-.779.492-1.247.996-.372.407-1.104,1.319-1.739,2.171-.527.707-1.091,1.451-1.451,1.979-.384.563-.815,1.176-1.031,1.355-.096.084-.228.144-.348.12-.132-.024-.204-.12-.204-.252 0-.276.216-.647.456-1.008 .444-.672.816-1.199 1.679-2.362 .576-.792 1.919-2.543 2.531-3.299-.555.505-1.011.925-1.202,1.093z"/> <path d="m124.442,165.524-.492.444c-.072.06-.108.072-.132.036-.012-.036.024-.072.06-.108 .048-.048.504-.443.875-.756 .312-.396.9-1.127 1.416-1.715 .408-.479.899-1.007 1.427-1.487 .144-.132.276-.203.432-.203 .12,0 .18.048.18.083-.228.229-1.283,1.392-1.787,1.991-.804.972-1.667,2.087-1.919,2.639-.036.084-.108.252-.024.324 .084.06.264-.013.372-.072 .156-.084.324-.204.492-.336 .216-.168.372-.3.528-.443 .048-.048.144-.132.18-.097 .024.024-.012.072-.084.145-.144.144-.444.407-.731.623-.24.181-.684.48-1.08.48-.24,0-.384-.108-.372-.324 .012-.288.312-.756.671-1.211l-.012-.013z"/> <path d="m125.942,165.992c-.084.072-.132.097-.156.072-.024-.036.036-.096.084-.144 .084-.084.252-.216.372-.3 .156-.108.324-.216.576-.348 .348-.181.719-.313.995-.324 .084,0 .18,0 .18.048 0,.024-.036.024-.132.072-.288.132-.528.336-.864.659-.348.348-.671.815-.695,1.056-.012.12.036.204.167.204 .264,0 .744-.324 1.116-.731 .012-.12.06-.3.216-.504 .132-.18.3-.276.384-.313 .036-.084.036-.216.036-.275 0-.132-.048-.168-.012-.192 .048-.023.12.024.168.072 .096.096.168.24.144.42-.036.288-.312.636-.684.972 .048.023.18.012.228,0 .108-.024.24-.084.408-.204 .156-.108.252-.191.384-.312 .108-.097.168-.156.204-.12s-.036.107-.156.216c-.108.096-.228.204-.384.312-.192.132-.336.192-.456.216-.108.024-.252.024-.324-.023-.312.239-.875.588-1.367.588-.372,0-.6-.181-.588-.528 .012-.239.156-.527.384-.768l-.012-.012-.216.191z"/> <path d="m130.322,164.949c.228,0 .299.132.299.264 0,.144-.096.3-.252.516-.18.24-.432.563-.563.756l.012.012c.287-.239.684-.588 1.104-.899s.947-.647 1.295-.647c.3,0 .42.144.384.348-.036.192-.265.443-.468.684s-.324.384-.432.527l.012.013c.275-.24.707-.612 1.127-.924s.948-.647 1.308-.647c.265,0 .396.132.372.324-.036.216-.288.491-.48.731-.191.228-.323.419-.395.527-.097.144-.097.228-.049.264 .061.048.192,0 .288-.048 .144-.072.312-.168.575-.372 .205-.155.444-.371.576-.491 .072-.061.12-.108.156-.072 .023.024-.012.072-.096.156-.108.107-.469.432-.721.623-.239.181-.707.48-1.079.48-.239,0-.372-.108-.359-.313 .012-.275.3-.587.503-.839 .181-.216.349-.408.504-.588 .049-.06.072-.132.012-.168s-.191.012-.311.072c-.217.107-.553.312-.936.611-.528.408-.816.684-1.344,1.092-.107.084-.191.107-.313.107-.191,0-.227-.036-.155-.191 .12-.252.42-.672.636-.936 .203-.252.42-.468.504-.588 .048-.06.06-.144-.012-.168s-.168.012-.301.072c-.215.107-.575.323-.936.611-.527.408-.814.684-1.343,1.092-.108.084-.181.107-.312.107-.168,0-.252-.023-.156-.191 .084-.156.348-.552.527-.804s.348-.456.48-.624c.084-.107.107-.168.084-.204-.037-.048-.108-.023-.18.013-.145.071-.324.203-.469.323-.156.132-.348.3-.515.456-.12.107-.168.144-.204.107-.024-.035.036-.096.18-.228s.409-.384.624-.552c.327-.25.567-.394.819-.394z"/> <path d="m135.926,165.285c.432-.229.887-.384 1.199-.336 .24.048.324.252.252.456 .287-.3.492-.456.684-.456 .252-.012.275.048.156.191-.156.181-.42.48-.672.792-.204.24-.324.408-.42.588-.072.132-.096.239-.072.323 .036.108.133.145.217.145 .203,0 .383-.108.587-.204 .384-.192.731-.372 1.032-.36 .251.013.407.181.419.408 .013.252-.18.372-.228.408-.024.012-.049.035-.061.023s-.012-.023.012-.048c.024-.036.061-.096.061-.204-.012-.287-.203-.384-.42-.384s-.432.072-.875.288c-.192.096-.469.228-.756.24-.216.012-.443-.084-.504-.313-.035-.144 0-.348.072-.455l-.012-.013c-.313.276-.863.672-1.32.696-.264.012-.539-.097-.491-.48 .024-.18.12-.371.336-.623l-.013-.012c-.035.035-.084.084-.155.144-.048.036-.084.06-.108.036-.023-.036.037-.108.168-.229 .037-.035.24-.203.36-.287s.323-.214.552-.334zm.048.539c-.491.48-.696.792-.672.948 .013.084.072.119.156.119 .228,0 .684-.264 1.007-.563 .385-.336.816-.852.828-1.043 .012-.156-.084-.216-.216-.216-.24,0-.672.324-1.103.755z"/> <path d="m149.602,161.963c-.264.107-.552.264-.695.372 .252.168.827.695.527,1.415-.264.611-1.104.863-1.595.863v.012c.204.084.396.264.419.504s-.119.516-.239.684c-.216.336-.432.588-.432.84 0,.096.06.204.228.204 .192,0 .468-.156.863-.456 .252-.192.444-.359.576-.479 .072-.072.132-.12.168-.084 .023.023-.012.071-.084.144-.145.144-.348.324-.636.552-.348.276-.743.516-1.115.516-.384,0-.575-.191-.575-.479-.013-.3.215-.66.419-.924 .228-.288.433-.516.42-.743 0-.145-.12-.229-.216-.276-.072.013-.18.024-.264.013-.107-.013-.168-.036-.216-.061-.084.12-.24.336-.336.456-.876,1.067-1.583,1.439-2.243,1.727 .156.036.443.084.588.097 .324.023.623-.036.875-.204 .181-.12.181-.156.205-.145s.012.097-.108.204c-.323.288-.72.396-1.128.396-.287,0-.719-.108-.923-.168-.479.144-1.235.216-1.812.203-.432,0-1.092-.096-1.092-.396 0-.312.48-.504 1.236-.468 .516.036 1.355.264 1.967.408 .443-.216.971-.696 1.751-1.739 1.044-1.367 1.883-2.183 2.471-2.566-.276-.168-.743-.324-1.499-.324-1.523,0-3.143.924-3.442,2.207-.155.636.048,1.188.624,1.235 .275.023.299-.048.323-.012s-.12.132-.348.132c-.72-.024-1.224-.54-1.067-1.367 .252-1.355 2.063-2.303 3.91-2.303 .84,0 1.402.18 1.667.312 .191-.144.527-.312.768-.408 .251-.107.684-.228 1.091-.228 .36,0 .732.108.863.312 .061.097.061.181.037.181-.037,0-.013-.024-.108-.133-.144-.155-.444-.251-.804-.251-.311-.003-.731.105-1.019.225zm-7.245,4.605c-.588-.061-1.031-.024-1.031.191 0,.192.611.265.936.276 .588.012 1.295-.061 1.619-.156-.42-.083-1.092-.275-1.524-.311zm5.614-3.19c-.264.36-.516.756-.756,1.079 .049,0 .12,0 .229.013 .096.012.168.036.239.06 .528-.036 1.079-.372 1.296-.888 .215-.504.06-.947-.229-1.163-.252.204-.516.527-.779.899z"/> <path d="m151.093,166.484c.228-.156.504-.372.731-.576 .072-.06.108-.071.133-.048 .023.036-.024.097-.097.156-.155.144-.54.456-.755.6-.504.336-.948.492-1.355.492-.443,0-.648-.168-.636-.48 .012-.239.12-.455.359-.743l-.012-.012c-.036.035-.168.155-.239.216-.061.048-.097.06-.121.035-.023-.035.024-.083.072-.132 .156-.144.264-.228.443-.359 .133-.096.36-.24.588-.359 .348-.181.708-.336 1.031-.336h.013c.264,0 .36.168.348.323-.024.313-.407.552-.768.731-.348.168-.755.313-1.031.384-.048.097-.072.204-.072.276 0,.18.097.275.276.275 .156.001.564-.083 1.092-.443zm-.407-.599c.299-.204.479-.456.491-.624 .013-.107-.036-.168-.144-.168s-.288.12-.527.348c-.192.181-.492.564-.637.804 .24-.06.565-.192.817-.36z"/> <path d="m152.318,167.108c-.444,0-.66-.181-.637-.504 .024-.24.156-.492.348-.72l-.012-.012c-.035.035-.131.119-.203.18s-.133.096-.156.071c-.023-.035.023-.083.072-.132 .156-.144.264-.228.443-.359 .132-.096.372-.252.576-.359 .407-.217.791-.372 1.104-.324 .275.048.371.228.323.456s-.252.407-.407.407c-.205,0-.205-.168-.097-.348 .132-.228.181-.372.036-.396-.132-.024-.408.155-.744.504-.323.323-.635.779-.671,1.067-.024.18.084.275.276.275 .155,0 .575-.072 1.103-.432 .228-.156.528-.408.72-.576 .072-.06.107-.071.132-.048 .024.036-.024.084-.096.156-.155.144-.491.432-.708.575-.42.288-.982.517-1.391.517h-.011z"/> <path d="m156.217,166.484c.229-.156.504-.372.732-.576 .071-.06.107-.071.131-.048 .024.036-.023.097-.096.156-.156.144-.539.456-.756.6-.504.336-.947.492-1.355.492-.443,0-.646-.168-.635-.48 .012-.239.119-.455.359-.743l-.012-.012c-.036.035-.168.155-.24.216-.06.048-.096.06-.119.035-.024-.035.023-.083.071-.132 .156-.144.265-.228.444-.359 .131-.096.359-.24.588-.359 .348-.181.707-.336 1.031-.336h.012c.264,0 .359.168.348.323-.023.313-.408.552-.768.731-.348.168-.756.313-1.031.384-.049.097-.072.204-.072.276 0,.18.096.275.275.275 .157.001.565-.083 1.093-.443zm-.408-.599c.301-.204.48-.456.492-.624 .012-.107-.035-.168-.144-.168s-.288.12-.528.348c-.191.181-.491.564-.635.804 .239-.06.563-.192.815-.36z"/> <path d="m157.43,165.645c-.18.145-.313.252-.432.36-.096.084-.145.119-.18.096-.024-.024 0-.072.131-.192s.564-.479.852-.671c.313-.216.469-.265.695-.265 .252,0 .276.036.133.192-.216.24-.408.468-.648.768-.203.252-.348.468-.419.588-.072.132-.084.216-.036.264 .061.048.168.024.287-.036s.324-.191.528-.359c.252-.204.36-.3.552-.48 .107-.096.156-.144.191-.107s-.096.156-.131.191c-.145.145-.444.408-.684.6s-.648.492-1.044.492c-.252,0-.36-.12-.36-.312 0-.156.084-.313.18-.456 .24-.372.709-.863.9-1.031-.084.034-.336.214-.515.358zm2.194-2.291c.156,0 .228.133.084.313-.144.191-.444.323-.563.323-.061-.071-.072-.251-.012-.407 .072-.18.252-.229.479-.229h.012z"/> <path d="m161.197,166.232c-.133.084-.301.18-.504.288-.36.191-.732.371-1.152.504-.107.035-.311.084-.407.084-.084,0-.168-.024-.18-.145-.013-.072.048-.144.108-.216 .168-.191.395-.456.587-.695 .168-.216.349-.468.444-.66 .035-.071.035-.144 0-.168-.049-.035-.133-.012-.18.013-.133.06-.324.203-.469.323-.191.156-.443.384-.504.444-.047.048-.096.071-.119.048s0-.072.048-.12c.071-.072.468-.432.636-.563 .287-.229.588-.42.84-.42 .228,0 .371.132.336.42-.024.216-.205.504-.42.768-.252.323-.553.611-.684.731 .312-.084.719-.276 1.079-.468 .12-.06.407-.228.527-.324 .013-.228.156-.516.276-.684 .215-.312.42-.479.575-.443 .144.036.132.252.036.432-.084.144-.275.456-.768.779 .023.12.132.181.264.192 .168.012.372-.048.576-.192 .144-.107.252-.203.299-.252 .061-.06.145-.132.181-.096 .024.024-.048.108-.12.18s-.145.132-.287.24c-.205.144-.408.228-.637.228-.189,0-.346-.096-.381-.228z"/> <path d="m164.269,166.484c.228-.156.504-.372.731-.576 .072-.06.108-.071.133-.048 .023.036-.024.097-.097.156-.155.144-.54.456-.755.6-.504.336-.948.492-1.355.492-.443,0-.648-.168-.636-.48 .012-.239.12-.455.359-.743l-.012-.012c-.036.035-.168.155-.239.216-.061.048-.097.06-.121.035-.023-.035.024-.083.072-.132 .156-.144.264-.228.443-.359 .133-.096.36-.24.588-.359 .348-.181.708-.336 1.031-.336h.013c.264,0 .36.168.348.323-.024.313-.407.552-.768.731-.348.168-.755.313-1.031.384-.048.097-.072.204-.072.276 0,.18.097.275.276.275 .156.001.564-.083 1.092-.443zm-.408-.599c.299-.204.479-.456.491-.624 .013-.107-.036-.168-.144-.168s-.288.12-.527.348c-.192.181-.492.564-.637.804 .241-.06.565-.192.817-.36z"/> <path d="m167.076,165.273c0,.155-.287.407-.552.719-.204.24-.348.444-.407.564-.061.107-.061.191-.012.228s.131.024.264-.048 .348-.204.539-.36c.264-.203.408-.323.564-.468 .084-.084.155-.119.18-.096 .035.036-.049.108-.145.204-.144.132-.384.348-.684.575-.252.192-.672.48-1.067.48-.252,0-.384-.132-.372-.313 .012-.264.313-.6.576-.852 .287-.275.744-.6.779-.684 .049-.132-.18-.096-.479-.096-.12,0-.216,0-.276-.023-.096.107-.264.275-.455.455l-.48.444c-.107.096-.155.119-.18.096s.012-.084.133-.192l.467-.432c.168-.155.324-.312.42-.42-.107-.071-.119-.239 0-.384 .096-.119.264-.203.456-.203 .096,0 .204.048.216.119-.084.061-.132.097-.204.168-.155.168-.12.252.036.265 .336.012.684.023.684.239v.015z"/> <path d="m193.604,163.726c0-.336-.217-.539-.528-.552-.323-.012-.624.156-.779.313s-.18.252-.216.239c-.023-.012.012-.132.145-.275 .143-.168.479-.408.887-.384 .359.012.672.252.672.684 0,.443-.275.923-.72,1.295-.468.384-1.115.647-1.847.611-.876-.048-1.403-.432-1.392-1.175 .024-1.439 2.11-2.543 4.149-2.543 .996,0 2.039.252 2.663.804 .144-.096.479-.3.779-.42 .323-.132.731-.239 1.175-.239 .324,0 .553.096.672.18 .084.06.133.156.108.18-.036.012-.036-.036-.168-.12-.097-.06-.312-.132-.612-.132-.383,0-.779.108-1.115.252-.323.144-.611.336-.719.432 .719.792.695,1.932.131,2.771-.671.996-2.146,1.451-3.357,1.451-.623,0-1.319-.036-1.643-.06-.336.036-.852.072-1.188.072-1.08,0-1.907.012-1.896-.217 .024-.228.768-.264 1.739-.228 .432.012 1.115.096 1.607.18 .995-.287 1.595-1.235 2.326-2.099 .576-.684 1.403-1.499 1.979-1.883-.539-.552-1.606-.815-2.482-.815-1.895,0-3.621,1.175-3.646,2.53 0,.528.288.924.899.96 .684.036 1.26-.24 1.691-.624 .42-.384.684-.84.684-1.175v-.013zm-.264,3.25c1.223,0 2.278-.527 3.046-1.583 .563-.791.671-1.799.204-2.398-.42.396-.947,1.271-1.476,1.943-.936,1.127-1.751,1.619-2.782,1.931 .168.035.719.107 1.008.107z"/> <path d="m197.17,166.592c.035-.287.275-.707.863-1.139 .396-.288 1.079-.576 1.475-.504 .24.036.324.252.252.456 .288-.3.492-.456.684-.456 .252-.012.275.048.156.191-.156.181-.42.48-.672.792-.156.191-.312.396-.42.588-.084.144-.084.239-.035.275 .06.048.18,0 .275-.048 .119-.06.348-.216.539-.372 .252-.203.444-.371.576-.491 .072-.061.132-.12.168-.084s-.023.096-.156.216c-.156.144-.443.396-.672.575-.239.192-.635.48-1.031.48-.228,0-.336-.108-.348-.252-.012-.132.061-.3.168-.432l-.012-.013c-.313.276-.863.672-1.319.696-.265.014-.528-.082-.491-.478zm1.186-.768c-.491.48-.695.792-.671.948 .012.084.071.119.155.119 .228,0 .684-.264 1.008-.563 .384-.336.815-.852.827-1.043 .012-.156-.084-.216-.216-.216-.238,0-.67.324-1.103.755z"/> <path d="m200.913,165.98c-.084.072-.12.084-.144.061s0-.072.084-.145c.324-.288.647-.575.875-.779l-.432.012c-.084,0-.144,0-.132-.06 .013-.048.132-.061.323-.072l.336-.012c.372-.456.852-.983 1.128-1.247 .216-.217.504-.492.755-.492 .121,0 .168.036.181.072-.144.132-.456.468-.731.779-.276.312-.492.575-.732.888l.684-.013c.097,0 .181.013.168.072-.012.072-.119.061-.215.061-.264,0-.456,0-.732.012-.24.288-.647.899-.863,1.319-.072.132-.107.3-.012.348 .072.036.203,0 .3-.048 .144-.072.348-.204.54-.36 .215-.168.42-.359.563-.479 .061-.048.133-.12.168-.084 .024.024 0,.061-.084.145-.131.132-.479.443-.73.635-.217.168-.648.492-1.104.492-.276,0-.372-.156-.36-.336 .024-.3.3-.731.647-1.188-.193.156-.337.288-.481.419z"/> <path d="m204.668,166.484c.229-.156.504-.372.732-.576 .071-.06.107-.071.131-.048 .024.036-.023.097-.096.156-.156.144-.539.456-.756.6-.504.336-.947.492-1.355.492-.443,0-.646-.168-.635-.48 .012-.239.119-.455.359-.743l-.012-.012c-.036.035-.168.155-.24.216-.06.048-.096.06-.119.035-.024-.035.023-.083.071-.132 .156-.144.265-.228.444-.359 .131-.096.359-.24.588-.359 .348-.181.707-.336 1.031-.336h.012c.264,0 .359.168.348.323-.023.313-.408.552-.768.731-.348.168-.756.313-1.031.384-.049.097-.072.204-.072.276 0,.18.096.275.275.275 .157.001.566-.083 1.093-.443zm-.408-.599c.301-.204.48-.456.492-.624 .012-.107-.035-.168-.144-.168s-.288.12-.528.348c-.191.181-.491.564-.635.804 .24-.06.563-.192.815-.36z"/> <path d="m46.247,154.607c.216-.12.492-.3.804-.528 .204-.155.384-.3.611-.504 .096-.084.156-.144.192-.107s-.036.107-.156.216c-.204.18-.444.384-.672.552-.228.18-.671.456-.839.54-.312.167-.516.264-.72.348-.204.252-.54.671-.852.995-.803.852-1.811,1.667-2.687,2.099-.419.204-.815.324-1.139.324-.228,0-.672-.072-.672-.504 0-.504.768-1.127 2.051-1.751 .684-.336 1.487-.672 2.482-1.044 .815-1.103 1.643-2.11 2.303-2.854 .36-.408 1.067-1.08 1.847-1.703 .396-.324.779-.564 1.007-.72 .084-.061.132-.084.132-.108 0-.036-.036-.06-.12-.06-.636-.012-1.535.18-2.543.707-1.091.576-1.931,1.464-1.931,2.159 0,.264.108.468.336.527 .167.049.204-.023.216.024 .012.036-.096.084-.216.072-.372-.036-.612-.336-.612-.768 0-.66.563-1.644 2.135-2.327 .612-.264 1.763-.563 2.663-.504 .108.013.3.036.264.18-.012.049-.108.12-.216.204-.168.132-.456.396-.72.647-.527.517-.983,1.02-1.487,1.619-.768.912-1.751,2.123-2.111,2.579 .195-.07.422-.178.65-.31zm-4.066,1.811c-1.175.6-1.763,1.188-1.715,1.631 .024.204.204.288.396.3 .3.036.684-.084 1.008-.239 .719-.36 1.391-1.067 2.099-1.932 .156-.191.408-.527.576-.755-.769.275-1.788.707-2.364.995z"/> <path d="m47.725,153.659c-.084.072-.132.097-.156.072-.024-.036.036-.096.084-.144 .084-.084.252-.216.372-.3 .156-.108.324-.216.576-.349 .348-.18.719-.312.995-.323 .084,0 .18,0 .18.048 0,.024-.036.024-.132.072-.288.132-.528.336-.864.659-.348.348-.671.815-.695,1.056-.012.12.036.204.167.204 .264,0 .744-.324 1.116-.731 .012-.12.06-.3.216-.504 .132-.18.3-.276.384-.313 .036-.084.036-.216.036-.275 0-.132-.048-.168-.012-.192 .048-.023.12.024.168.072 .096.096.168.24.144.42-.036.288-.312.636-.684.972 .048.023.18.012.228,0 .108-.024.24-.084.408-.204 .156-.108.252-.192.384-.312 .108-.097.168-.156.204-.12s-.036.107-.156.216c-.108.096-.228.204-.384.312-.192.132-.336.192-.456.216-.108.024-.252.024-.324-.023-.312.239-.875.588-1.367.588-.372,0-.6-.181-.588-.528 .012-.239.156-.527.384-.768l-.012-.012c-.085.072-.132.12-.216.191z"/> <path d="m52.007,152.172v-.012c-.108.036-.359.072-.624.061-.684-.036-.959-.432-.959-.816 0-.323.168-.516.264-.587 .012-.013.072-.048.084-.036s-.012.036-.048.072c-.072.071-.216.264-.192.527 .024.348.384.636.875.695 .276.036.504.013.708-.048 .252-.3.492-.611.732-.888 .768-.923 1.955-2.063 3.034-2.782 .42-.288.936-.516 1.307-.516 .312,0 .516.18.516.456 0,.539-.744,1.259-2.051,2.183-.852.611-1.919,1.151-2.986,1.571-.492.611-1.211,1.679-1.499,2.099l.012.012c.288-.239.684-.588 1.103-.899s.948-.647 1.308-.647c.252,0 .396.12.372.323-.036.217-.288.492-.479.732-.192.228-.324.407-.396.527-.084.144-.096.228-.048.264 .06.048.192,0 .288-.048 .144-.072.3-.156.576-.372 .204-.155.444-.371.576-.491 .096-.084.132-.096.156-.072s-.012.072-.096.156c-.108.107-.468.432-.72.623-.24.181-.708.48-1.079.48-.24,0-.372-.108-.36-.313 .012-.264.276-.563.503-.839 .18-.216.36-.408.504-.588 .048-.061.072-.132.012-.168s-.192.012-.312.072c-.216.107-.552.312-.936.611-.528.408-.815.684-1.343,1.092-.108.084-.18.107-.312.107-.168,0-.252-.023-.156-.191 .12-.229.288-.504.492-.804 .096-.132.216-.3.36-.479v-.013l-.456.408c-.072.06-.108.071-.132.036-.012-.036.024-.072.06-.108 .048-.048.504-.443.78-.672 .179-.238.383-.49.562-.718zm3.982-2.158c1.056-.863 1.343-1.403 1.343-1.775 0-.155-.096-.228-.204-.239-.24-.036-.564.071-.959.359-.48.348-1.224,1.008-1.871,1.728-.504.563-.996,1.151-1.523,1.786 .935-.36 2.135-.984 3.214-1.859z"/> <path d="m56.603,154.427c.012-.264.276-.563.503-.839 .18-.216.36-.42.504-.588 .048-.061.072-.132.012-.168s-.192.012-.312.072c-.216.107-.552.312-.936.611-.528.408-.815.684-1.343,1.092-.108.084-.18.107-.312.107-.168,0-.252-.023-.156-.191 .084-.156.336-.552.528-.804 .132-.18.348-.456.479-.624 .084-.107.108-.168.084-.204-.036-.048-.108-.023-.18.013-.144.071-.324.203-.468.323-.156.132-.348.3-.516.456-.12.107-.168.144-.204.107-.024-.035.036-.096.18-.228s.408-.384.624-.552c.324-.252.563-.396.815-.396 .228,0 .3.132.3.264 0,.144-.096.3-.252.516-.18.24-.432.563-.563.756l.012.012c.288-.239.684-.588 1.104-.899s.947-.647 1.307-.647c.252,0 .396.12.372.323-.036.217-.288.492-.48.732-.192.228-.335.432-.396.527-.096.156-.096.228-.048.264 .06.048.191,0 .288-.048 .144-.072.312-.168.576-.372 .204-.155.444-.371.576-.491 .096-.084.132-.096.156-.072s-.012.072-.096.156c-.108.107-.468.432-.72.623-.24.181-.708.48-1.08.48-.226.001-.37-.107-.358-.311z"/> <path d="m67.004,151.297c.432-.66.912-1.199 1.391-1.535 .252-.168.516-.275.744-.288 .192-.012.432.061.408.324-.036.396-.695.911-1.499,1.247-.084.036-.228.096-.324.132-.228.42-.42.828-.612,1.188-.923,1.799-2.314,2.507-3.874,2.614-.636.036-1.427-.036-1.955-.407-.444.396-.815.791-.959,1.115-.036.072-.06.12-.096.107s-.012-.107 0-.144c.12-.348.456-.779.9-1.199-.252-.228-.48-.624-.444-1.127 .096-1.176 1.619-1.8 2.506-1.859 .636-.061 1.595.084 1.943.611 .66-.275 1.236-.527 1.871-.779zm-3.814.275c-.839.061-2.003.588-2.087,1.703-.024.408.096.756.264.96 .096-.096.24-.216.372-.312 .228-.168.42-.3.696-.48-.132-.119-.228-.275-.252-.455-.012-.061 0-.12.036-.12 .024,0 .024.048.036.096 .048.168.156.3.288.408 .516-.313 1.08-.6 1.607-.84l.792-.36c-.276-.539-1.164-.659-1.752-.6zm-.575,2.003c-.251.168-.479.324-.719.504-.144.108-.264.204-.396.313 .444.432 1.211.527 1.847.479 1.271-.108 2.195-.936 3.058-2.519 .18-.313.348-.612.528-.876v-.012c-.588.24-1.127.468-1.715.743 .048.108.072.24.072.372-.024.804-.983,1.247-1.763,1.247-.288.001-.636-.07-.912-.251zm2.399-.983c0-.107-.012-.203-.036-.287l-.804.371c-.396.192-.935.48-1.463.828 .264.144.563.203.792.203 .659,0 1.475-.432 1.511-1.115zm2.998-1.667c.66-.275 1.355-.731 1.403-1.127 .024-.168-.12-.24-.276-.216-.168.023-.36.144-.552.336-.216.203-.551.684-.792,1.091l.217-.084z"/> <path d="m67.476,154.163c.288-.239.684-.588 1.103-.899s.948-.647 1.295-.647c.3,0 .42.144.384.348-.036.192-.264.443-.468.684s-.324.384-.432.527l.012.013c.276-.24.708-.612 1.127-.924s.948-.647 1.308-.647c.264,0 .396.132.372.323-.036.217-.288.492-.479.732-.192.228-.324.42-.396.527-.096.144-.096.228-.048.264 .06.048.192,0 .288-.048 .144-.072.312-.168.576-.372 .204-.155.444-.371.576-.491 .072-.061.12-.108.156-.072 .024.024-.012.072-.096.156-.108.107-.468.432-.72.623-.24.181-.708.48-1.079.48-.24,0-.372-.108-.36-.313 .012-.275.3-.587.503-.839 .18-.216.348-.408.504-.588 .048-.061.072-.132.012-.168s-.192.012-.312.072c-.216.107-.552.312-.936.611-.528.408-.815.684-1.343,1.092-.108.084-.192.107-.312.107-.191,0-.228-.036-.156-.191 .12-.252.42-.672.636-.936 .204-.252.42-.468.504-.588 .048-.061.06-.144-.012-.168s-.168.012-.3.072c-.216.107-.576.323-.936.611-.528.408-.815.684-1.343,1.092-.108.084-.18.107-.312.107-.167,0-.251-.023-.156-.191 .096-.181.312-.504.528-.804 .192-.252.408-.516.647-.78 .168-.18.312-.3.552-.3 .252-.012.276.024.132.192-.204.228-.348.408-.468.563-.192.24-.432.563-.563.756l.012.014z"/> <path d="m73.151,153.312c-.18.145-.312.252-.432.36-.096.084-.144.119-.18.096-.024-.024 0-.072.132-.192s.563-.479.852-.671c.312-.216.468-.265.695-.265 .252,0 .276.036.132.192-.216.24-.408.468-.648.768-.204.252-.348.468-.419.588-.072.132-.084.216-.036.264 .06.048.168.023.288-.036s.324-.191.528-.359c.252-.204.36-.3.552-.48 .108-.096.156-.144.192-.107s-.096.156-.132.191c-.144.145-.444.408-.684.6s-.648.492-1.043.492c-.252,0-.36-.12-.36-.312 0-.156.084-.313.18-.456 .24-.372.708-.863.9-1.031-.085.034-.336.214-.517.358zm2.195-2.291c.156,0 .228.132.084.312-.144.191-.444.323-.563.323-.06-.071-.072-.252-.012-.407 .072-.18.252-.228.48-.228h.011z"/> <path d="m74.688,153.647c-.084.072-.12.084-.144.06s0-.071.083-.144c.324-.288.648-.575.875-.779l-.432.012c-.084,0-.144,0-.132-.06 .012-.048.132-.061.324-.072l.336-.012c.372-.456.852-.983 1.127-1.248 .216-.216.504-.491.755-.491 .12,0 .168.036.18.072-.144.132-.456.468-.732.779s-.492.575-.731.888l.684-.013c.096,0 .18.013.168.072-.012.072-.12.061-.216.061-.264,0-.456,0-.731.012-.24.288-.648.899-.864,1.319-.072.132-.108.3-.012.348 .072.036.204,0 .3-.048 .144-.072.348-.204.54-.36 .216-.168.42-.359.563-.479 .06-.048.132-.12.168-.084 .024.024 0,.061-.084.145-.132.132-.479.443-.731.635-.216.168-.647.492-1.104.492-.276,0-.372-.156-.36-.336 .024-.3.3-.731.648-1.188-.19.156-.334.288-.478.419z"/> <path d="m78.707,154.739c-.24,0-.372-.108-.36-.313 .012-.264.276-.563.504-.839 .18-.216.359-.408.503-.588 .048-.061.072-.132.012-.168s-.192.012-.312.072c-.216.107-.552.312-.936.611-.528.408-.815.684-1.343,1.092-.108.084-.18.107-.312.107-.168,0-.24-.023-.156-.191 .12-.229.288-.504.492-.804 .096-.145.216-.3.36-.479v-.013l-.456.408c-.072.06-.108.071-.132.036-.012-.036.024-.072.06-.108 .048-.048.504-.443.78-.672 .408-.539.912-1.187 1.451-1.799 .696-.804 2.159-2.339 2.783-2.771 .335-.239.671-.479 1.019-.479 .312,0 .408.216.372.432-.096.576-1.248,1.535-2.459,2.543-.731.6-1.559,1.175-2.446,1.955-.204.228-.708.959-.996,1.379l.012.012c.288-.239.684-.588 1.103-.899s.948-.647 1.308-.647c.251,0 .396.12.372.323-.036.217-.288.492-.479.732-.192.228-.324.407-.396.527-.084.144-.096.228-.048.264 .06.048.192,0 .288-.048 .144-.072.3-.156.576-.372 .204-.155.444-.371.576-.491 .096-.084.132-.096.156-.072s-.012.072-.096.156c-.108.107-.468.432-.72.623-.241.181-.709.481-1.08.481zm1.762-4.053c1.151-.996 2.219-1.955 2.267-2.483 .012-.155-.072-.228-.204-.228-.204,0-.528.24-.779.479-.396.396-.972.972-1.595,1.716-.875,1.043-1.188,1.427-1.835,2.29 1.139-.995 1.595-1.295 2.146-1.774z"/> <path d="m124.732,149.126c-.084.096-.132.18-.18.324-.036.107-.024.168-.06.168-.024,0-.036-.061-.024-.156 .012-.12.084-.288.18-.408 .3-.396.875-.695 1.619-.695 1.008,0 1.727.468 1.559,1.295-.132.684-1.031,1.008-2.195.972-.096,0-.216-.012-.3.012-.228.084-.576.349-.911.744-.504.6-.732,1.092-1.355,1.679-.875.804-1.979,1.248-2.758,1.403v.012c.264.024 1.079.108 1.907.108 1.02-.012 1.655-.144 2.339-.588 .204-.132.396-.3.516-.407 .072-.061.12-.097.156-.072 .036.036-.012.084-.096.156-.132.119-.336.3-.54.443-.684.479-1.427.695-2.543.695-.923,0-1.907-.107-2.338-.168-.336.072-.948.12-1.284.133-.432.012-1.199.012-1.163-.204 .048-.24.528-.3.996-.3 .503,0 1.343.096 1.787.155 .408-.071 1.127-.359 1.631-.779 .684-.575.971-1.079 1.643-1.787 .588-.636 1.199-1.067 1.847-1.259v-.013c-.492-.048-.996-.132-1.631-.252s-1.295-.264-1.931-.287c-1.068-.061-2.003.312-2.099,1.091-.06.54.48.924 1.139.948 .732.012 1.224-.288 1.26-.756 .012-.12-.012-.252-.084-.348-.024-.036-.072-.061-.048-.072 .024-.024.084,0 .132.036 .084.048.24.191.24.407 .012.528-.72.84-1.5.84-.755-.012-1.343-.443-1.271-1.092 .084-.875 1.139-1.379 2.375-1.343 .612.012 1.355.144 1.991.252 .563.096 1.271.204 2.027.252 1.043.048 1.811-.204 1.907-.768 .096-.528-.468-.983-1.415-.983-.673.001-1.225.264-1.525.612z"/> <path d="m127.159,152.939c0,.156-.288.408-.552.72-.204.24-.348.444-.408.564-.06.107-.06.191-.012.228s.132.023.264-.048 .348-.204.54-.36c.264-.203.408-.323.564-.468 .084-.084.156-.119.18-.096 .036.036-.048.108-.144.204-.144.132-.384.348-.684.575-.251.192-.671.48-1.067.48-.252,0-.384-.132-.372-.313 .012-.264.312-.6.576-.852 .288-.275.744-.6.779-.684 .048-.132-.18-.096-.479-.096-.12,0-.216,0-.276-.023-.096.107-.264.275-.456.455l-.48.444c-.108.096-.156.119-.18.096s.012-.084.132-.192l.468-.432c.168-.155.324-.312.419-.42-.108-.071-.12-.239 0-.384 .096-.119.264-.203.456-.203 .096,0 .204.048.216.119-.084.061-.132.097-.204.168-.156.168-.12.252.036.265 .336.012.684.023.684.239v.014z"/> <path d="m130.603,152.616c.252-.012.276.048.155.191-.155.181-.42.48-.671.792-.156.191-.312.396-.42.588-.084.144-.084.239-.036.275 .061.048.18,0 .275-.048 .121-.06.348-.216.54-.372 .252-.203.444-.371.575-.491 .072-.061.133-.12.168-.084s-.023.096-.155.216c-.155.144-.444.396-.672.575-.239.192-.636.48-1.031.48-.228,0-.336-.108-.348-.252-.012-.132.06-.3.168-.432l-.013-.013c-.312.276-.863.672-1.319.696-.264.012-.54-.097-.492-.48 .024-.18.12-.371.336-.623l-.012-.012c-.036.035-.084.083-.156.144-.048.036-.084.06-.108.036-.024-.036.036-.108.168-.229 .036-.035.24-.203.36-.287s.324-.216.552-.336c.468-.24.888-.384 1.199-.336 .239.036.323.252.252.456 .289-.298.492-.454.685-.454zm-2.087.875c-.492.48-.696.792-.672.948 .012.084.072.119.156.119 .228,0 .684-.264 1.008-.563 .383-.336.814-.852.827-1.043 .012-.156-.084-.216-.216-.216-.24,0-.672.324-1.103.755z"/> <path d="m131.492,154.775c-.443,0-.66-.181-.636-.504 .024-.24.155-.492.348-.72l-.012-.012c-.036.035-.132.119-.204.18s-.132.096-.156.071c-.023-.035.024-.084.072-.132 .156-.144.264-.228.443-.359 .133-.096.373-.252.576-.36 .408-.216.791-.371 1.104-.323 .275.048.371.228.324.456s-.252.407-.408.407c-.204,0-.204-.168-.096-.348 .132-.228.18-.372.035-.396-.131-.024-.407.155-.743.504-.323.323-.636.779-.671,1.067-.024.18.084.275.275.275 .156,0 .576-.072 1.104-.432 .228-.156.527-.408.719-.576 .072-.06.108-.071.133-.048 .023.036-.024.084-.096.156-.156.144-.492.432-.708.575-.42.288-.983.517-1.392.517h-.011z"/> <path d="m134.047,153.312c-.18.145-.311.252-.432.36-.096.084-.144.119-.18.096-.023-.024 0-.072.133-.192s.563-.479.852-.671c.311-.216.467-.265.695-.265 .252,0 .275.036.132.192-.216.24-.408.468-.647.768-.204.252-.348.468-.42.588-.072.132-.084.216-.036.264 .06.048.168.023.288-.036s.324-.191.527-.359c.252-.204.359-.3.552-.48 .108-.096.155-.144.192-.107s-.097.156-.133.191c-.144.145-.443.408-.684.6s-.647.492-1.043.492c-.252,0-.359-.12-.359-.312 0-.156.084-.313.18-.456 .24-.372.707-.863.899-1.031-.084.034-.335.214-.516.358zm2.195-2.291c.156,0 .229.132.084.312-.144.191-.443.323-.563.323-.06-.071-.072-.252-.013-.407 .072-.18.252-.228.48-.228h.012z"/> <path d="m141.139,150.17c-1.393-.049-2.615.491-2.615,1.679 0,.407.288.959.875,1.151 .108.036.156.023.145.06s-.145.036-.229.013c-.611-.181-1.007-.708-1.031-1.248-.035-1.091.876-1.955 2.699-1.906 .815.023 2.459.239 2.842.023 .168-.096.313-.191.396-.144 .072.048-.036.096-.156.216-.3.288-.564.563-.863.947-.36.443-.611.804-.84,1.092h1.715c.191-.229.42-.504 1.008-1.044 .563-.527 1.188-.972 1.512-1.151s.803-.359 1.199-.359c.443,0 .695.216.755.384 .036.096.024.168-.012.18-.024.012-.024-.036-.06-.108-.097-.191-.289-.335-.672-.335-.385,0-.792.191-1.092.407-.312.229-.611.504-1.092,1.02-.312.336-.671.779-.839,1.008 .323.012.743.023.96.048 .096.012.275.023.275.06 0,.048-.18.036-.264.036-.42,0-.816,0-1.092.012-.539.684-1.307,1.68-1.307,2.123 0,.144.107.204.227.204 .205,0 .48-.108.852-.372 .168-.12.504-.407.684-.563 .072-.06.121-.084.145-.06s0,.06-.072.132c-.156.144-.504.443-.695.587-.18.133-.647.48-1.115.48-.348,0-.576-.181-.576-.528 0-.623.84-1.643 1.14-2.003l-1.69.013c-1.164,1.427-2.231,2.662-3.935,2.662-.575,0-1.199-.252-1.199-.936 0-.323.265-.636.624-.623 .24.012.408.191.383.443-.012.144-.083.264-.191.359-.107.097-.156.192-.156.3 .024.252.348.349.6.349 1.283,0 2.447-1.68 3.131-2.555l-.888.023c-.084,0-.251.012-.228-.06 .012-.048.18-.061.348-.072 .216-.023.539-.036.888-.048 .636-.768 1.583-1.667 2.075-1.991-.459.166-1.274.143-2.569.095z"/> <path d="m148.194,152.616c.252-.012.276.048.155.191-.155.181-.42.48-.671.792-.156.191-.312.396-.42.588-.084.144-.084.239-.036.275 .061.048.18,0 .275-.048 .121-.06.348-.216.54-.372 .252-.203.444-.371.575-.491 .072-.061.133-.12.168-.084s-.023.096-.155.216c-.155.144-.444.396-.672.575-.239.192-.636.48-1.031.48-.228,0-.336-.108-.348-.252-.013-.132.06-.3.168-.432l-.013-.013c-.312.276-.863.672-1.318.696-.264.012-.54-.097-.492-.48 .023-.18.12-.371.336-.623l-.012-.012c-.036.035-.084.083-.156.144-.048.036-.084.06-.107.036-.024-.036.035-.108.168-.229 .035-.035.239-.203.359-.287s.324-.216.552-.336c.468-.24.888-.384 1.199-.336 .239.036.323.252.252.456 .289-.298.492-.454.684-.454zm-2.087.875c-.492.48-.695.792-.672.948 .012.084.072.119.156.119 .228,0 .684-.264 1.008-.563 .383-.336.814-.852.827-1.043 .012-.156-.084-.216-.216-.216-.239,0-.671.324-1.103.755z"/> <path d="m149.228,153.72c.132-.18.348-.456.479-.624 .084-.107.107-.168.084-.204-.036-.048-.107-.023-.18.013-.145.071-.324.203-.468.323-.156.132-.349.3-.516.456-.12.107-.168.144-.204.107-.023-.035.036-.096.18-.228s.408-.384.624-.552c.323-.252.563-.396.815-.396 .229,0 .3.132.3.264 0,.144-.096.3-.252.516l-.36.479 .024.024c.132-.132.42-.42.731-.672 .192-.155.385-.312.588-.443 .18-.12.275-.156.348-.168 .061-.012.217-.012.276.012 .036.012.048.061-.084.168-.168.144-.396.348-.456.552-.096.324.048.468.229.468 .144,0 .275-.108.407-.228 .084-.072.12-.097.155-.072 .024.024-.012.072-.119.18s-.275.229-.443.24c-.229.012-.408-.048-.516-.216-.084-.132-.084-.384.023-.636-.18.132-.42.312-.516.396-.348.3-.744.672-1.211,1.128-.084.084-.181.107-.313.107-.168,0-.252-.023-.156-.191 .086-.156.338-.551.531-.803z"/> <path d="m153.343,152.64c.239-.012.276.024.132.192-.204.228-.348.408-.468.563-.192.24-.3.384-.36.479l.024.024c.168-.168.528-.504.731-.672 .301-.239.768-.588 1.14-.611 .252-.012.42.096.372.323-.049.265-.504.685-.708.48-.096-.096.06-.264.156-.42 .036-.072.024-.132-.024-.156-.072-.036-.203.024-.287.072-.229.132-.444.288-.756.563-.348.3-.744.672-1.211,1.128-.084.084-.181.107-.313.107h-.012c-.156,0-.24-.023-.145-.191 .12-.216.313-.516.528-.804 .192-.252.407-.528.647-.768-.084.036-.3.191-.468.323-.12.097-.312.252-.491.42-.108.096-.156.108-.18.084-.025-.023.012-.072.047-.107 .168-.156.637-.552.947-.768 .315-.213.471-.249.699-.261z"/> <path d="m154.903,154.751h-.012c-.24,0-.349-.12-.349-.3 0-.156.072-.312.181-.468 .239-.359.587-.731.899-1.044 .229-.228.313-.3.552-.3 .252,0 .276.036.132.192-.216.24-.408.468-.647.768-.204.252-.349.468-.42.588-.071.132-.084.216-.036.264 .061.048.168.023.288-.036s.323-.191.527-.359c.252-.204.36-.3.552-.48 .107-.096.156-.144.191-.107s-.096.156-.131.191c-.145.145-.444.408-.684.6s-.647.491-1.043.491zm1.908-3.502c.084-.18.252-.228.468-.228 .18,0 .251.132.108.312-.145.191-.444.323-.564.323-.061-.071-.073-.252-.012-.407z"/> <path d="m158.551,154.151c.335-.204.587-.42.791-.6 .061-.048.119-.108.156-.072 .023.024-.024.096-.133.192-.119.107-.348.3-.611.479s-.527.312-.756.407c-.215.097-.647.217-1.007.217-.636,0-.768-.384-.72-.72 .048-.349.324-.636.611-.624 .168.012.252.132.229.264-.024.12-.108.216-.264.3-.108.061-.265.192-.276.36-.013.191.132.3.348.3 .239,0 .54-.192.804-.647 .216-.349.432-1.068.563-1.224v-.012c-.12.119-.372.312-.575.455-.168.12-.36.24-.456.288-.048.024-.097.048-.12.012-.012-.036 0-.06.061-.096 .119-.072.312-.191.504-.336 .215-.156.432-.336.707-.575 .023-.048.107-.145.191-.204 .133-.096.264-.132.348-.132 .276,0 .097.155-.06.252-.108.071-.228.12-.288.18-.096.096-.084.191-.084.323 .013.336.037.648-.107.984-.072.168-.24.396-.384.491 .131-.046.335-.142.528-.262z"/> <path d="m185.436,154.775c-.443,0-.719-.265-.671-.78 .048-.588.468-1.163.804-1.522 .443-.504 1.115-.864 1.57-.96 .12-.024.252-.012.252.024 0,.023-.096,0-.252.107-.287.192-.695.611-1.055,1.067-.396.479-.744,1.067-.816,1.487-.06.275.024.432.217.443 .371.036.815-.407 1.283-.983 .383-.491.731-1.091.875-1.606 .061-.204.036-.336-.035-.408-.072-.084-.156-.084-.145-.107 .012-.036.168-.036.275.012 .217.096.396.407.276.84-.12.455-.468.983-.899,1.438-.54.588-1.199.948-1.667.948h-.012z"/> <path d="m191.686,151.465c.108,0 .084.036.013.132-.792.983-1.451,1.907-1.835,2.446 .145.013.336.024.468.049 .12.023.192.071.168.132-.013.035-.06.012-.216,0l-.504-.024c-.408.516-.636.827-.947,1.271-.18.252-.348.312-.6.359-.264.048-.359.061-.024-.42 .3-.419.575-.768.899-1.211-.384,0-.659.012-.936.036-.191.012-.359.036-.491.06-.06.013-.156.036-.156-.023-.012-.048.097-.145.181-.204 .239-.192.887-.684 1.511-1.115 .804-.552 1.354-.899 1.942-1.283 .252-.156.408-.204.516-.204h.011zm-.755.527c-.42.24-1.128.708-1.644,1.08-.527.384-1.007.731-1.355,1.02v.012c.336-.048.984-.061 1.296-.061 .432-.575 1.367-1.727 1.716-2.038l-.013-.013z"/> <path d="m195.454,150.529c-1.008,1.079-3.251,3.502-4.714,5.085-.06.061-.144.096-.18.072-.036-.036.036-.12.096-.192 1.428-1.631 3.514-4.054 4.33-5.024 .203-.229.348-.36.6-.36 .191-.001.227.036-.132.419z"/> <path d="m195.348,152.473c-.264.132-.563.18-.576.132s.024-.013.576-.3c.359-.192.744-.396 1.043-.6 .133-.084.385-.229.492-.229 .084,0 .084.072-.084.264-.768.924-1.319,1.667-1.883,2.459-.3.42-.313.443-.863.552-.229.036-.288.024.06-.432 .612-.804 1.823-2.195 2.026-2.314-.24.155-.539.335-.791.468z"/> <path d="m199.103,151.021c-.323,0-.659.264-.731.575-.072.336.023.624.168.972 .096.264.191.539.18.815-.048.768-.924,1.439-1.739,1.392-.456-.036-.779-.336-.659-.804 .132-.528.743-.96 1.331-1.188 .096-.036.264-.096.276-.048 .012.036-.097.06-.217.144-.396.264-.672.576-.803,1.02-.133.432.023.684.336.695 .575.048.982-.539.982-1.043 0-.24-.096-.492-.191-.731-.12-.3-.156-.54-.145-.78 .037-.636.805-1.211 1.451-1.199 .456.013.684.336.588.731-.096.456-.659.756-.982.912-.156.072-.313.12-.324.084-.012-.048.107-.096.18-.145 .359-.228.576-.503.66-.852 .071-.3-.061-.551-.349-.551h-.012z"/> <path d="m203.506,150.529c-1.008,1.079-3.25,3.502-4.714,5.085-.06.061-.144.096-.18.072-.036-.036.036-.12.096-.192 1.427-1.631 3.515-4.054 4.33-5.024 .204-.229.348-.36.6-.36 .192-.001.227.036-.132.419z"/> <path d="m202.848,154.151c.275.023.564.18.756.18 .287,0 .504-.084.852-.456 .035-.035.072-.071.096-.06 .036.024 0,.084-.012.096-.313.408-.72.828-1.211.828-.217,0-.48-.072-.672-.168-.168-.084-.301-.108-.492-.108-.12,0-.287.061-.384.12-.084.048-.216.144-.264.156-.036.012-.048-.013-.024-.072 .024-.072.108-.12.204-.18 .181-.12.672-.348 1.115-.612 .792-.468 1.619-1.175 1.787-1.703 .084-.275-.06-.467-.3-.467-.275,0-.576.107-.828.312-.18.144-.371.372-.419.588-.06.287.084.419.312.359 .049-.012.072-.024.084,0s-.048.06-.084.072c-.06.023-.18.048-.275.036-.264-.036-.313-.229-.276-.396 .06-.264.312-.539.588-.755 .348-.265.78-.444 1.175-.444 .54,0 .732.324.612.768-.156.516-.708.912-1.331,1.296-.48.275-1.031.503-1.416.647 .143-.037.204-.048.407-.037z"/> <path d="m205.812,154.775c-.444,0-.72-.265-.672-.78 .048-.588.468-1.163.804-1.522 .443-.504 1.115-.864 1.571-.96 .12-.024.252-.012.252.024 0,.023-.097,0-.252.107-.288.192-.696.611-1.056,1.067-.396.479-.743,1.067-.815,1.487-.06.275.024.432.216.443 .372.036.815-.407 1.283-.983 .384-.491.732-1.091.876-1.606 .06-.204.036-.336-.036-.408-.072-.084-.156-.084-.145-.107 .013-.036.168-.036.276.012 .216.096.396.407.276.84-.121.455-.469.983-.9,1.438-.539.588-1.199.948-1.666.948h-.012z"/> <path d="m209.579,152.473c-.264.132-.563.18-.575.132s.023-.013.575-.3c.36-.192.743-.396 1.044-.6 .131-.084.383-.229.491-.229 .084,0 .084.072-.084.264-.768.924-1.319,1.667-1.883,2.459-.3.42-.312.443-.864.552-.227.036-.287.024.061-.432 .611-.804 1.823-2.195 2.027-2.314-.24.155-.54.335-.792.468z"/> <path d="m211.823,152.473c-.264.132-.563.18-.575.132s.023-.013.575-.3c.36-.192.743-.396 1.044-.6 .131-.084.383-.229.491-.229 .084,0 .084.072-.084.264-.768.924-1.319,1.667-1.883,2.459-.3.42-.312.443-.864.552-.227.036-.287.024.061-.432 .611-.804 1.823-2.195 2.027-2.314-.24.155-.54.335-.792.468z"/> </svg>